<svg width="30" height="30" viewBox="0 0 30 30" fill="none" xmlns="http://www.w3.org/2000/svg">
<path fill-rule="evenodd" clip-rule="evenodd" d="M9.94523 3.75C9.94523 3.19772 9.49751 2.75 8.94523 2.75C8.39294 2.75 7.94523 3.19772 7.94523 3.75V7.21336V10.6768C7.94523 11.229 8.39294 11.6768 8.94523 11.6768C9.49751 11.6768 9.94523 11.229 9.94523 10.6768V8.21336H17.6037C18.156 8.21336 18.6037 7.76564 18.6037 7.21336C18.6037 6.66107 18.156 6.21336 17.6037 6.21336H9.94523V3.75ZM5.48169 6.21336C4.7572 6.21336 4.06238 6.50116 3.55009 7.01345C3.0378 7.52574 2.75 8.22056 2.75 8.94505V14.1401V24.5303C2.75 25.2547 3.0378 25.9496 3.55009 26.4619C4.06238 26.9741 4.7572 27.2619 5.48169 27.2619H24.5303C25.2548 27.2619 25.9496 26.9741 26.4619 26.4619C26.9742 25.9496 27.262 25.2547 27.262 24.5303V14.1401V8.94505C27.262 8.22056 26.9742 7.52574 26.4619 7.01345C25.9496 6.50116 25.2548 6.21336 24.5303 6.21336H22.0664V3.75C22.0664 3.19772 21.6187 2.75 21.0664 2.75C20.5141 2.75 20.0664 3.19772 20.0664 3.75V10.6768C20.0664 11.229 20.5141 11.6768 21.0664 11.6768C21.6187 11.6768 22.0664 11.229 22.0664 10.6768V8.21336H24.5303C24.7243 8.21336 24.9104 8.29045 25.0476 8.42766C25.1849 8.56488 25.262 8.75099 25.262 8.94505V13.1401H4.75V8.94505C4.75 8.75099 4.82709 8.56488 4.96431 8.42766C5.10153 8.29045 5.28763 8.21336 5.48169 8.21336C6.03397 8.21336 6.48169 7.76564 6.48169 7.21336C6.48169 6.66107 6.03397 6.21336 5.48169 6.21336ZM4.75 15.1401V24.5303C4.75 24.7243 4.82709 24.9104 4.96431 25.0476C5.10153 25.1849 5.28763 25.2619 5.48169 25.2619H24.5303C24.7243 25.2619 24.9104 25.1849 25.0476 25.0476C25.1849 24.9104 25.262 24.7243 25.262 24.5303V15.1401H4.75ZM9.67676 20.2012C9.67676 19.6489 10.1245 19.2012 10.6768 19.2012H19.3352C19.8875 19.2012 20.3352 19.6489 20.3352 20.2012C20.3352 20.7535 19.8875 21.2012 19.3352 21.2012H10.6768C10.1245 21.2012 9.67676 20.7535 9.67676 20.2012Z" fill="#008CDB"/>
</svg>
