<svg width="30" height="30" viewBox="0 0 30 30" fill="none" xmlns="http://www.w3.org/2000/svg">
<path d="M15 13.75C14.7528 13.75 14.5111 13.8233 14.3055 13.9607C14.1 14.098 13.9398 14.2932 13.8452 14.5216C13.7505 14.7501 13.7258 15.0014 13.774 15.2439C13.8223 15.4863 13.9413 15.7091 14.1161 15.8839C14.2909 16.0587 14.5137 16.1778 14.7561 16.226C14.9986 16.2742 15.25 16.2495 15.4784 16.1549C15.7068 16.0602 15.902 15.9 16.0393 15.6945C16.1767 15.4889 16.25 15.2472 16.25 15C16.25 14.6685 16.1183 14.3505 15.8839 14.1161C15.6495 13.8817 15.3315 13.75 15 13.75ZM15 2.5C12.5277 2.5 10.111 3.23311 8.05538 4.60663C5.99976 5.98015 4.39761 7.93238 3.45151 10.2165C2.50542 12.5005 2.25787 15.0139 2.74019 17.4386C3.2225 19.8634 4.41301 22.0907 6.16117 23.8388C7.90933 25.587 10.1366 26.7775 12.5614 27.2598C14.9861 27.7421 17.4995 27.4946 19.7836 26.5485C22.0676 25.6024 24.0199 24.0002 25.3934 21.9446C26.7669 19.889 27.5 17.4723 27.5 15C27.5 13.3585 27.1767 11.733 26.5485 10.2165C25.9203 8.69989 24.9996 7.3219 23.8388 6.16117C22.6781 5.00043 21.3001 4.07969 19.7836 3.45151C18.267 2.82332 16.6415 2.5 15 2.5ZM16.25 24.9125V21.25C16.25 20.9185 16.1183 20.6005 15.8839 20.3661C15.6495 20.1317 15.3315 20 15 20C14.6685 20 14.3505 20.1317 14.1161 20.3661C13.8817 20.6005 13.75 20.9185 13.75 21.25V24.9125C11.55 24.6335 9.5051 23.6311 7.93699 22.063C6.36887 20.4949 5.3665 18.45 5.08751 16.25H8.75001C9.08153 16.25 9.39947 16.1183 9.63389 15.8839C9.86831 15.6495 10 15.3315 10 15C10 14.6685 9.86831 14.3505 9.63389 14.1161C9.39947 13.8817 9.08153 13.75 8.75001 13.75H5.08751C5.3665 11.55 6.36887 9.50509 7.93699 7.93698C9.5051 6.36887 11.55 5.36649 13.75 5.0875V8.75C13.75 9.08152 13.8817 9.39946 14.1161 9.63388C14.3505 9.8683 14.6685 10 15 10C15.3315 10 15.6495 9.8683 15.8839 9.63388C16.1183 9.39946 16.25 9.08152 16.25 8.75V5.0875C18.45 5.36649 20.4949 6.36887 22.063 7.93698C23.6311 9.50509 24.6335 11.55 24.9125 13.75H21.25C20.9185 13.75 20.6005 13.8817 20.3661 14.1161C20.1317 14.3505 20 14.6685 20 15C20 15.3315 20.1317 15.6495 20.3661 15.8839C20.6005 16.1183 20.9185 16.25 21.25 16.25H24.9125C24.6335 18.45 23.6311 20.4949 22.063 22.063C20.4949 23.6311 18.45 24.6335 16.25 24.9125Z" fill="#25BA00"/>
</svg>
