<svg width="30" height="30" viewBox="0 0 30 30" fill="none" xmlns="http://www.w3.org/2000/svg">
<path d="M16.25 3.75C13.9294 3.75 11.7038 4.67187 10.0628 6.31282C8.42187 7.95376 7.5 10.1794 7.5 12.5C7.5 14.8206 8.42187 17.0462 10.0628 18.6872C11.7038 20.3281 13.9294 21.25 16.25 21.25C17.9076 21.25 19.4973 20.5915 20.6694 19.4194C21.8415 18.2473 22.5 16.6576 22.5 15C22.5 13.3424 21.8415 11.7527 20.6694 10.5806C19.4973 9.40848 17.9076 8.75 16.25 8.75C15.2554 8.75 14.3016 9.14509 13.5983 9.84835C12.8951 10.5516 12.5 11.5054 12.5 12.5C12.5 13.4946 12.8951 14.4484 13.5983 15.1517C14.3016 15.8549 15.2554 16.25 16.25 16.25C16.5815 16.25 16.8995 16.1183 17.1339 15.8839C17.3683 15.6495 17.5 15.3315 17.5 15C17.5 14.6685 17.3683 14.3505 17.1339 14.1161C16.8995 13.8817 16.5815 13.75 16.25 13.75C15.9185 13.75 15.6005 13.6183 15.3661 13.3839C15.1317 13.1495 15 12.8315 15 12.5C15 12.1685 15.1317 11.8505 15.3661 11.6161C15.6005 11.3817 15.9185 11.25 16.25 11.25C17.2446 11.25 18.1984 11.6451 18.9017 12.3483C19.6049 13.0516 20 14.0054 20 15C20 15.9946 19.6049 16.9484 18.9017 17.6517C18.1984 18.3549 17.2446 18.75 16.25 18.75C14.5924 18.75 13.0027 18.0915 11.8306 16.9194C10.6585 15.7473 10 14.1576 10 12.5C10 10.8424 10.6585 9.25269 11.8306 8.08058C13.0027 6.90848 14.5924 6.25 16.25 6.25C18.5706 6.25 20.7962 7.17187 22.4372 8.81282C24.0781 10.4538 25 12.6794 25 15C25 17.3206 24.0781 19.5462 22.4372 21.1872C20.7962 22.8281 18.5706 23.75 16.25 23.75C13.2663 23.75 10.4048 22.5647 8.29505 20.455C6.18526 18.3452 5 15.4837 5 12.5C5 12.1685 4.8683 11.8505 4.63388 11.6161C4.39946 11.3817 4.08152 11.25 3.75 11.25C3.41848 11.25 3.10054 11.3817 2.86612 11.6161C2.6317 11.8505 2.5 12.1685 2.5 12.5C2.5 16.1467 3.94866 19.6441 6.52728 22.2227C9.10591 24.8013 12.6033 26.25 16.25 26.25C19.2337 26.25 22.0952 25.0647 24.205 22.955C26.3147 20.8452 27.5 17.9837 27.5 15C27.5 12.0163 26.3147 9.15483 24.205 7.04505C22.0952 4.93526 19.2337 3.75 16.25 3.75Z" fill="#EB0000"/>
</svg>
