<svg width="24" height="24" viewBox="0 0 24 24" fill="none" xmlns="http://www.w3.org/2000/svg">
<path d="M12.7105 15.5402L18.3605 9.88023C18.4542 9.78726 18.5286 9.67666 18.5793 9.5548C18.6301 9.43294 18.6562 9.30224 18.6562 9.17023C18.6562 9.03821 18.6301 8.90751 18.5793 8.78565C18.5286 8.66379 18.4542 8.55319 18.3605 8.46023C18.1731 8.27398 17.9196 8.16943 17.6555 8.16943C17.3913 8.16943 17.1378 8.27398 16.9505 8.46023L11.9505 13.4102L7.00045 8.46023C6.81309 8.27397 6.55964 8.16943 6.29545 8.16943C6.03127 8.16943 5.77781 8.27397 5.59045 8.46023C5.49596 8.55284 5.42079 8.66329 5.3693 8.78516C5.3178 8.90704 5.291 9.03792 5.29045 9.17023C5.291 9.30253 5.3178 9.43342 5.3693 9.55529C5.42079 9.67717 5.49596 9.78761 5.59045 9.88023L11.2405 15.5402C11.3341 15.6417 11.4477 15.7227 11.5742 15.7781C11.7007 15.8336 11.8373 15.8622 11.9755 15.8622C12.1136 15.8622 12.2502 15.8336 12.3767 15.7781C12.5032 15.7227 12.6168 15.6417 12.7105 15.5402Z" fill="#25BA00"/>
</svg>
