<svg width="47" height="16" viewBox="0 0 47 16" fill="none" xmlns="http://www.w3.org/2000/svg">
<path d="M0.98 15V13.06L5.8 8.96C6.78667 8.13333 7.46667 7.45333 7.84 6.92C8.22667 6.37333 8.42 5.79333 8.42 5.18C8.42 4.51333 8.20667 3.98667 7.78 3.6C7.35333 3.2 6.81333 3 6.16 3C5.54667 3 4.99333 3.16667 4.5 3.5C4.02 3.83333 3.49333 4.36667 2.92 5.1L1.18 3.74C1.9 2.72667 2.64 1.98667 3.4 1.52C4.17333 1.04 5.15333 0.799999 6.34 0.799999C7.71333 0.799999 8.82667 1.18667 9.68 1.96C10.5333 2.73333 10.96 3.75333 10.96 5.02C10.96 5.56667 10.8933 6.06 10.76 6.5C10.6267 6.92667 10.3867 7.36667 10.04 7.82C9.70667 8.26 9.34 8.66667 8.94 9.04C8.55333 9.4 8.01333 9.86667 7.32 10.44L4.44 12.84H11.1V15H0.98ZM17.7256 15.08L13.3856 4.44H15.9856L18.8256 12.2L21.6856 4.44H24.2256L19.9056 15.08H17.7256ZM30.1095 15.2C28.4562 15.2 26.9629 14.6733 25.6295 13.62L26.7095 11.98C27.8562 12.8467 29.0095 13.28 30.1695 13.28C30.6895 13.28 31.0895 13.18 31.3695 12.98C31.6629 12.7667 31.8095 12.4733 31.8095 12.1C31.8095 11.9133 31.7562 11.7533 31.6495 11.62C31.5562 11.4733 31.3829 11.34 31.1295 11.22C30.8762 11.1 30.6629 11.0133 30.4895 10.96C30.3162 10.9067 30.0295 10.82 29.6295 10.7L29.4495 10.64C29.0762 10.5333 28.7562 10.4333 28.4895 10.34C28.2362 10.2333 27.9495 10.0933 27.6295 9.92C27.3095 9.74667 27.0495 9.56 26.8495 9.36C26.6495 9.14667 26.4829 8.88 26.3495 8.56C26.2162 8.24 26.1495 7.88 26.1495 7.48C26.1495 6.50667 26.5029 5.72667 27.2095 5.14C27.9295 4.55333 28.8295 4.26 29.9095 4.26C31.2829 4.26 32.5762 4.66 33.7895 5.46L32.8295 7.18C31.7362 6.51333 30.7429 6.18 29.8495 6.18C29.3829 6.18 29.0162 6.28 28.7495 6.48C28.4962 6.68 28.3695 6.94667 28.3695 7.28C28.3695 7.50667 28.4829 7.71333 28.7095 7.9C28.9495 8.08667 29.1829 8.22667 29.4095 8.32C29.6495 8.4 30.0295 8.52667 30.5495 8.7C30.5762 8.71333 30.6095 8.72667 30.6495 8.74C30.6895 8.75333 30.7229 8.76 30.7495 8.76C31.2162 8.90667 31.6095 9.05333 31.9295 9.2C32.2495 9.33333 32.5829 9.52 32.9295 9.76C33.2895 10 33.5629 10.3 33.7495 10.66C33.9362 11.0067 34.0295 11.4133 34.0295 11.88C34.0295 12.9467 33.6629 13.7667 32.9295 14.34C32.1962 14.9133 31.2562 15.2 30.1095 15.2ZM36.5495 15V13.06L41.3695 8.96C42.3562 8.13333 43.0362 7.45333 43.4095 6.92C43.7962 6.37333 43.9895 5.79333 43.9895 5.18C43.9895 4.51333 43.7762 3.98667 43.3495 3.6C42.9229 3.2 42.3829 3 41.7295 3C41.1162 3 40.5629 3.16667 40.0695 3.5C39.5895 3.83333 39.0629 4.36667 38.4895 5.1L36.7495 3.74C37.4695 2.72667 38.2095 1.98667 38.9695 1.52C39.7429 1.04 40.7229 0.799999 41.9095 0.799999C43.2829 0.799999 44.3962 1.18667 45.2495 1.96C46.1029 2.73333 46.5295 3.75333 46.5295 5.02C46.5295 5.56667 46.4629 6.06 46.3295 6.5C46.1962 6.92667 45.9562 7.36667 45.6095 7.82C45.2762 8.26 44.9095 8.66667 44.5095 9.04C44.1229 9.4 43.5829 9.86667 42.8895 10.44L40.0095 12.84H46.6695V15H36.5495Z" fill="#25BA00"/>
</svg>
