<svg width="47" height="15" viewBox="0 0 47 15" fill="none" xmlns="http://www.w3.org/2000/svg">
<path d="M6.22 14.24C3.99333 14.24 2.20667 13.42 0.86 11.78L2.58 10.18C3.62 11.4067 4.84667 12.02 6.26 12.02C6.96667 12.02 7.54667 11.8267 8 11.44C8.45333 11.04 8.68 10.5133 8.68 9.86C8.68 9.18 8.38667 8.65333 7.8 8.28C7.22667 7.89333 6.44667 7.7 5.46 7.7H4.32L3.92 6.16L7.7 2.14H1.64V-9.53674e-07H10.9V1.84L7 5.84C8.22667 6.01333 9.22 6.42667 9.98 7.08C10.74 7.72 11.12 8.63333 11.12 9.82C11.12 11.1133 10.66 12.1733 9.74 13C8.83333 13.8267 7.66 14.24 6.22 14.24ZM17.8233 14.08L13.4833 3.44H16.0833L18.9233 11.2L21.7833 3.44H24.3233L20.0033 14.08H17.8233ZM30.2072 14.2C28.5539 14.2 27.0605 13.6733 25.7272 12.62L26.8072 10.98C27.9539 11.8467 29.1072 12.28 30.2672 12.28C30.7872 12.28 31.1872 12.18 31.4672 11.98C31.7605 11.7667 31.9072 11.4733 31.9072 11.1C31.9072 10.9133 31.8539 10.7533 31.7472 10.62C31.6539 10.4733 31.4805 10.34 31.2272 10.22C30.9739 10.1 30.7605 10.0133 30.5872 9.96C30.4139 9.90667 30.1272 9.82 29.7272 9.7L29.5472 9.64C29.1739 9.53333 28.8539 9.43333 28.5872 9.34C28.3339 9.23333 28.0472 9.09333 27.7272 8.92C27.4072 8.74667 27.1472 8.56 26.9472 8.36C26.7472 8.14667 26.5805 7.88 26.4472 7.56C26.3139 7.24 26.2472 6.88 26.2472 6.48C26.2472 5.50667 26.6005 4.72667 27.3072 4.14C28.0272 3.55333 28.9272 3.26 30.0072 3.26C31.3805 3.26 32.6739 3.66 33.8872 4.46L32.9272 6.18C31.8339 5.51333 30.8405 5.18 29.9472 5.18C29.4805 5.18 29.1139 5.28 28.8472 5.48C28.5939 5.68 28.4672 5.94667 28.4672 6.28C28.4672 6.50667 28.5805 6.71333 28.8072 6.9C29.0472 7.08667 29.2805 7.22667 29.5072 7.32C29.7472 7.4 30.1272 7.52667 30.6472 7.7C30.6739 7.71333 30.7072 7.72667 30.7472 7.74C30.7872 7.75333 30.8205 7.76 30.8472 7.76C31.3139 7.90667 31.7072 8.05333 32.0272 8.2C32.3472 8.33333 32.6805 8.52 33.0272 8.76C33.3872 9 33.6605 9.3 33.8472 9.66C34.0339 10.0067 34.1272 10.4133 34.1272 10.88C34.1272 11.9467 33.7605 12.7667 33.0272 13.34C32.2939 13.9133 31.3539 14.2 30.2072 14.2ZM41.8872 14.24C39.6605 14.24 37.8739 13.42 36.5272 11.78L38.2472 10.18C39.2872 11.4067 40.5139 12.02 41.9272 12.02C42.6339 12.02 43.2139 11.8267 43.6672 11.44C44.1205 11.04 44.3472 10.5133 44.3472 9.86C44.3472 9.18 44.0539 8.65333 43.4672 8.28C42.8939 7.89333 42.1139 7.7 41.1272 7.7H39.9872L39.5872 6.16L43.3672 2.14H37.3072V-9.53674e-07H46.5672V1.84L42.6672 5.84C43.8939 6.01333 44.8872 6.42667 45.6472 7.08C46.4072 7.72 46.7872 8.63333 46.7872 9.82C46.7872 11.1133 46.3272 12.1733 45.4072 13C44.5005 13.8267 43.3272 14.24 41.8872 14.24Z" fill="#EB0000"/>
</svg>
