<svg width="30" height="30" viewBox="0 0 30 30" fill="none" xmlns="http://www.w3.org/2000/svg">
<path d="M26.8625 5.91251L21.25 2.71251C21.06 2.6028 20.8444 2.54504 20.625 2.54504C20.4056 2.54504 20.19 2.6028 20 2.71251L15 5.56251L10 2.71251C9.80998 2.6028 9.59442 2.54504 9.375 2.54504C9.15558 2.54504 8.94002 2.6028 8.75 2.71251L3.1375 5.91251C2.94442 6.02104 2.78364 6.17893 2.67163 6.37002C2.55961 6.5611 2.50038 6.77852 2.5 7.00001V13.4C2.50038 13.6215 2.55961 13.8389 2.67163 14.03C2.78364 14.2211 2.94442 14.379 3.1375 14.4875L8.1375 17.325V23C8.13788 23.2215 8.19711 23.4389 8.30913 23.63C8.42114 23.8211 8.58192 23.979 8.775 24.0875L14.4 27.2875C14.59 27.3972 14.8056 27.455 15.025 27.455C15.2444 27.455 15.46 27.3972 15.65 27.2875L21.25 24.0875C21.4431 23.979 21.6039 23.8211 21.7159 23.63C21.8279 23.4389 21.8871 23.2215 21.8875 23V17.325L26.8875 14.4875C27.0806 14.379 27.2414 14.2211 27.3534 14.03C27.4654 13.8389 27.5246 13.6215 27.525 13.4V7.00001C27.5222 6.77601 27.4592 6.55689 27.3426 6.36558C27.2261 6.17426 27.0602 6.01778 26.8625 5.91251ZM5 12.675V7.67501L9.375 5.17501L13.75 7.67501V12.675L9.375 15.175L5 12.675ZM19.375 22.275L15 24.775L10.625 22.275V17.275L15 14.775L19.375 17.275V22.275ZM25 12.675L20.625 15.175L16.25 12.675V7.67501L20.625 5.17501L25 7.67501V12.675Z" fill="#008CDB"/>
</svg>
