<svg width="30" height="30" viewBox="0 0 30 30" fill="none" xmlns="http://www.w3.org/2000/svg">
<path d="M16.25 12.5H13.75C13.4185 12.5 13.1005 12.6317 12.8661 12.8661C12.6317 13.1005 12.5 13.4185 12.5 13.75C12.5 14.0815 12.6317 14.3995 12.8661 14.6339C13.1005 14.8683 13.4185 15 13.75 15H16.25C16.5815 15 16.8995 14.8683 17.1339 14.6339C17.3683 14.3995 17.5 14.0815 17.5 13.75C17.5 13.4185 17.3683 13.1005 17.1339 12.8661C16.8995 12.6317 16.5815 12.5 16.25 12.5ZM22.5 12.5C22.4964 11.3943 22.1264 10.321 21.4479 9.44795C20.7694 8.57492 19.8206 7.95142 18.75 7.675V6.25C18.75 5.25544 18.3549 4.30161 17.6517 3.59835C16.9484 2.89509 15.9946 2.5 15 2.5C14.0054 2.5 13.0516 2.89509 12.3483 3.59835C11.6451 4.30161 11.25 5.25544 11.25 6.25V7.675C10.1794 7.95142 9.23063 8.57492 8.55211 9.44795C7.87359 10.321 7.50359 11.3943 7.5 12.5C6.17392 12.5 4.90215 13.0268 3.96447 13.9645C3.02678 14.9021 2.5 16.1739 2.5 17.5V21.25C2.5 22.2446 2.89509 23.1984 3.59835 23.9017C4.30161 24.6049 5.25544 25 6.25 25H7.725C7.98289 25.7294 8.46009 26.3613 9.09117 26.8088C9.72225 27.2564 10.4763 27.4978 11.25 27.5H18.75C19.5237 27.4978 20.2778 27.2564 20.9088 26.8088C21.5399 26.3613 22.0171 25.7294 22.275 25H23.75C24.7446 25 25.6984 24.6049 26.4017 23.9017C27.1049 23.1984 27.5 22.2446 27.5 21.25V17.5C27.5 16.1739 26.9732 14.9021 26.0355 13.9645C25.0979 13.0268 23.8261 12.5 22.5 12.5ZM7.5 22.5H6.25C5.91848 22.5 5.60054 22.3683 5.36612 22.1339C5.1317 21.8995 5 21.5815 5 21.25V17.5C5 16.837 5.26339 16.2011 5.73223 15.7322C6.20107 15.2634 6.83696 15 7.5 15V22.5ZM13.75 6.25C13.75 5.91848 13.8817 5.60054 14.1161 5.36612C14.3505 5.1317 14.6685 5 15 5C15.3315 5 15.6495 5.1317 15.8839 5.36612C16.1183 5.60054 16.25 5.91848 16.25 6.25V7.5H13.75V6.25ZM20 23.75C20 24.0815 19.8683 24.3995 19.6339 24.6339C19.3995 24.8683 19.0815 25 18.75 25H11.25C10.9185 25 10.6005 24.8683 10.3661 24.6339C10.1317 24.3995 10 24.0815 10 23.75V22.5C10 21.837 10.2634 21.2011 10.7322 20.7322C11.2011 20.2634 11.837 20 12.5 20H17.5C18.163 20 18.7989 20.2634 19.2678 20.7322C19.7366 21.2011 20 21.837 20 22.5V23.75ZM20 18.2C19.245 17.7456 18.3812 17.5037 17.5 17.5H12.5C11.6188 17.5037 10.755 17.7456 10 18.2V12.5C10 11.837 10.2634 11.2011 10.7322 10.7322C11.2011 10.2634 11.837 10 12.5 10H17.5C18.163 10 18.7989 10.2634 19.2678 10.7322C19.7366 11.2011 20 11.837 20 12.5V18.2ZM25 21.25C25 21.5815 24.8683 21.8995 24.6339 22.1339C24.3995 22.3683 24.0815 22.5 23.75 22.5H22.5V15C23.163 15 23.7989 15.2634 24.2678 15.7322C24.7366 16.2011 25 16.837 25 17.5V21.25Z" fill="#FF9900"/>
</svg>
