<svg width="79" height="55" viewBox="0 0 79 55" fill="none" xmlns="http://www.w3.org/2000/svg">
<path d="M68.2443 29.4605C70.7642 29.4605 72.807 27.3324 72.807 24.7072C72.807 22.082 70.7642 19.9539 68.2443 19.9539C65.7244 19.9539 63.6816 22.082 63.6816 24.7072C63.6816 27.3324 65.7244 29.4605 68.2443 29.4605Z" fill="white"/>
<path d="M74.6375 16.4205C76.5645 16.4205 78.1266 14.7931 78.1266 12.7856C78.1266 10.7782 76.5645 9.15076 74.6375 9.15076C72.7106 9.15076 71.1484 10.7782 71.1484 12.7856C71.1484 14.7931 72.7106 16.4205 74.6375 16.4205Z" fill="#25BA00"/>
<path d="M63.6819 16.1918C65.245 16.1918 66.5122 14.8717 66.5122 13.2433C66.5122 11.6148 65.245 10.2947 63.6819 10.2947C62.1187 10.2947 60.8516 11.6148 60.8516 13.2433C60.8516 14.8717 62.1187 16.1918 63.6819 16.1918Z" fill="#25BA00"/>
<path d="M55.5328 17.5898C55.5328 7.42229 52.2633 5.46505 50.6529 5.46505C49.7745 5.46505 47.603 9.5829 45.7731 10.5488C44.7681 10.88 43.7009 10.9513 42.6636 10.7564C41.6263 10.5615 40.6502 10.1064 39.8196 9.43038C39.8196 8.74407 44.6995 6.25303 44.8947 4.93125C45.0899 3.60947 42.6499 0 41.0152 0C39.966 0 37.4285 3.02484 34.5738 5.08376C27.5609 9.14906 20.1394 12.3969 12.4436 14.7683C5.90458 16.4714 0 18.8287 8.72137e-10 21.8535C1.74441e-09 24.8784 5.1726 28.1641 10.5649 28.1641H27.6444L15.5423 16.5476H19.6902L31.7191 28.1641H48.7986C56.6308 28.1641 55.5328 23.004 55.5328 17.5898ZM34.9154 25.9018L22.9353 14.2854H27.0832L39.0388 25.9018H34.9154ZM42.6987 23.792L30.7431 12.1756H34.8666L46.8222 23.792H42.6987Z" fill="#25BA00"/>
<path d="M18.7626 33.985L19.1286 30.3501C19.1321 30.3214 19.1297 30.2922 19.1214 30.2645C19.1132 30.2368 19.0993 30.2113 19.0809 30.1896C19.0624 30.1679 19.0397 30.1506 19.0142 30.1389C18.9888 30.1271 18.9613 30.1211 18.9334 30.1213H14.0536C14.0247 30.1213 13.9962 30.1273 13.9695 30.1388C13.9429 30.1503 13.9187 30.1671 13.8983 30.1883C13.8779 30.2096 13.8617 30.2348 13.8507 30.2626C13.8397 30.2903 13.834 30.3201 13.834 30.3501L14.2 33.985C14.2112 34.0365 14.2392 34.0824 14.2793 34.1148C14.3193 34.1473 14.3689 34.1643 14.4196 34.1629H18.4943C18.5231 34.1751 18.5543 34.18 18.5853 34.1771C18.6164 34.1741 18.6462 34.1635 18.6725 34.1461C18.6988 34.1287 18.7207 34.105 18.7363 34.0769C18.752 34.0489 18.761 34.0174 18.7626 33.985Z" fill="#25BA00"/>
<path d="M52.4585 33.1207L52.8245 29.4859C52.8245 29.4558 52.8188 29.4261 52.8078 29.3983C52.7968 29.3706 52.7806 29.3453 52.7602 29.3241C52.7398 29.3028 52.7156 29.286 52.6889 29.2745C52.6623 29.263 52.6338 29.2571 52.6049 29.2571H47.7251C47.6972 29.2569 47.6697 29.2628 47.6443 29.2746C47.6188 29.2864 47.5961 29.3037 47.5776 29.3253C47.5591 29.347 47.5453 29.3725 47.5371 29.4002C47.5288 29.4279 47.5264 29.4571 47.5299 29.4859L47.8958 33.1207C47.9063 33.1749 47.9333 33.224 47.973 33.2607C48.0126 33.2974 48.0626 33.3197 48.1154 33.3241H52.1657C52.1978 33.3315 52.231 33.332 52.2633 33.3257C52.2956 33.3194 52.3263 33.3064 52.3537 33.2874C52.381 33.2684 52.4044 33.2438 52.4224 33.2152C52.4404 33.1866 52.4527 33.1544 52.4585 33.1207Z" fill="#25BA00"/>
<path d="M43.9187 33.3495L44.2603 29.7654C44.2606 29.7022 44.2383 29.6411 44.1977 29.5941C44.1571 29.5471 44.1011 29.5176 44.0407 29.5112H39.1608C39.116 29.5331 39.0795 29.5701 39.0574 29.6162C39.0352 29.6623 39.0287 29.7149 39.0388 29.7654L39.4048 33.4003C39.4108 33.4497 39.434 33.4951 39.47 33.5279C39.5059 33.5607 39.5522 33.5786 39.6 33.5782H43.6747C43.7055 33.5818 43.7367 33.5786 43.7663 33.5687C43.7958 33.5588 43.823 33.5425 43.846 33.5209C43.8691 33.4993 43.8875 33.4729 43.9 33.4433C43.9125 33.4138 43.9189 33.3818 43.9187 33.3495Z" fill="#25BA00"/>
<path d="M11.5654 33.985L11.9314 30.3501C11.9314 30.3201 11.9257 30.2903 11.9146 30.2626C11.9036 30.2348 11.8874 30.2096 11.867 30.1883C11.8466 30.1671 11.8224 30.1502 11.7958 30.1388C11.7692 30.1273 11.7406 30.1213 11.7118 30.1213H6.8319C6.80306 30.1213 6.77451 30.1273 6.74787 30.1388C6.72122 30.1502 6.69702 30.1671 6.67662 30.1883C6.65623 30.2096 6.64006 30.2348 6.62902 30.2626C6.61799 30.2903 6.6123 30.3201 6.6123 30.3501L6.9783 33.985C6.98955 34.0365 7.01757 34.0824 7.0576 34.1148C7.09763 34.1472 7.1472 34.1642 7.19789 34.1629H11.2482C11.2798 34.1795 11.3147 34.188 11.3501 34.1875C11.3854 34.187 11.4202 34.1776 11.4513 34.1602C11.4825 34.1427 11.5091 34.1176 11.529 34.0871C11.5488 34.0566 11.5613 34.0216 11.5654 33.985Z" fill="#25BA00"/>
<path d="M1.62 52V39.4H10.998V41.416H3.834V44.854H10.188V46.87H3.834V52H1.62ZM18.3348 52.216C16.8948 52.216 15.6948 51.736 14.7348 50.776C13.7748 49.816 13.2948 48.646 13.2948 47.266C13.2948 45.886 13.7808 44.716 14.7528 43.756C15.7248 42.784 16.9308 42.298 18.3708 42.298C19.8108 42.298 21.0108 42.778 21.9708 43.738C22.9428 44.698 23.4288 45.874 23.4288 47.266C23.4288 48.634 22.9428 49.804 21.9708 50.776C20.9988 51.736 19.7868 52.216 18.3348 52.216ZM18.3708 50.326C19.2348 50.326 19.9308 50.032 20.4588 49.444C20.9868 48.856 21.2508 48.13 21.2508 47.266C21.2508 46.414 20.9748 45.694 20.4228 45.106C19.8708 44.506 19.1748 44.206 18.3348 44.206C17.4828 44.206 16.7928 44.5 16.2648 45.088C15.7368 45.676 15.4728 46.402 15.4728 47.266C15.4728 48.106 15.7488 48.826 16.3008 49.426C16.8528 50.026 17.5428 50.326 18.3708 50.326ZM31.0649 52.216C29.6249 52.216 28.4249 51.736 27.4649 50.776C26.5049 49.816 26.0249 48.646 26.0249 47.266C26.0249 45.886 26.5109 44.716 27.4829 43.756C28.4549 42.784 29.6609 42.298 31.1009 42.298C32.5409 42.298 33.7409 42.778 34.7009 43.738C35.6729 44.698 36.1589 45.874 36.1589 47.266C36.1589 48.634 35.6729 49.804 34.7009 50.776C33.7289 51.736 32.5169 52.216 31.0649 52.216ZM31.1009 50.326C31.9649 50.326 32.6609 50.032 33.1889 49.444C33.7169 48.856 33.9809 48.13 33.9809 47.266C33.9809 46.414 33.7049 45.694 33.1529 45.106C32.6009 44.506 31.9049 44.206 31.0649 44.206C30.2129 44.206 29.5229 44.5 28.9949 45.088C28.4669 45.676 28.2029 46.402 28.2029 47.266C28.2029 48.106 28.4789 48.826 29.0309 49.426C29.5829 50.026 30.2729 50.326 31.1009 50.326ZM42.463 52.162C40.639 52.162 39.727 51.232 39.727 49.372V44.368H38.521V42.496H39.727V39.886H41.905V42.496H44.461V44.368H41.905V49.03C41.905 49.822 42.295 50.218 43.075 50.218C43.543 50.218 43.993 50.11 44.425 49.894V51.676C43.849 52 43.195 52.162 42.463 52.162Z" fill="white"/>
<path d="M47.5598 52V42.496H49.7378V43.936C50.5298 42.844 51.4958 42.298 52.6358 42.298C53.9558 42.298 54.8978 42.856 55.4618 43.972C56.3138 42.856 57.3878 42.298 58.6838 42.298C59.7278 42.298 60.5438 42.616 61.1318 43.252C61.7198 43.888 62.0138 44.782 62.0138 45.934V52H59.8358V46.6C59.8358 45.844 59.6678 45.268 59.3318 44.872C58.9958 44.476 58.5218 44.278 57.9098 44.278C57.2978 44.278 56.8058 44.488 56.4338 44.908C56.0618 45.316 55.8758 45.892 55.8758 46.636V52H53.6978V46.582C53.6978 45.85 53.5298 45.286 53.1938 44.89C52.8578 44.482 52.3838 44.278 51.7718 44.278C51.1598 44.278 50.6678 44.494 50.2958 44.926C49.9238 45.346 49.7378 45.922 49.7378 46.654V52H47.5598ZM69.9193 52.216C68.5273 52.216 67.3633 51.754 66.4273 50.83C65.5033 49.906 65.0413 48.712 65.0413 47.248C65.0413 45.868 65.4793 44.698 66.3553 43.738C67.2313 42.778 68.3413 42.298 69.6853 42.298C71.1253 42.298 72.2413 42.79 73.0333 43.774C73.8373 44.746 74.2393 45.958 74.2393 47.41C74.2393 47.674 74.2273 47.878 74.2033 48.022H67.2193C67.3393 48.778 67.6453 49.372 68.1373 49.804C68.6293 50.224 69.2353 50.434 69.9553 50.434C70.8913 50.434 71.7493 50.056 72.5293 49.3L73.8073 50.434C72.8233 51.622 71.5273 52.216 69.9193 52.216ZM67.2013 46.582H72.0793C72.0073 45.85 71.7613 45.25 71.3413 44.782C70.9213 44.314 70.3633 44.08 69.6673 44.08C69.0073 44.08 68.4553 44.314 68.0113 44.782C67.5673 45.238 67.2973 45.838 67.2013 46.582Z" fill="#25BA00"/>
</svg>
