<svg width="144" height="96" viewBox="0 0 144 96" fill="none" xmlns="http://www.w3.org/2000/svg">
<path d="M125.785 54.1635C130.43 54.1635 134.195 50.2509 134.195 45.4245C134.195 40.598 130.43 36.6854 125.785 36.6854C121.141 36.6854 117.375 40.598 117.375 45.4245C117.375 50.2509 121.141 54.1635 125.785 54.1635Z" fill="black"/>
<path d="M137.569 30.1895C141.121 30.1895 144 27.1975 144 23.5067C144 19.8158 141.121 16.8238 137.569 16.8238C134.017 16.8238 131.138 19.8158 131.138 23.5067C131.138 27.1975 134.017 30.1895 137.569 30.1895Z" fill="#25BA00"/>
<path d="M117.376 29.769C120.257 29.769 122.593 27.3419 122.593 24.3479C122.593 21.354 120.257 18.9269 117.376 18.9269C114.495 18.9269 112.159 21.354 112.159 24.3479C112.159 27.3419 114.495 29.769 117.376 29.769Z" fill="#25BA00"/>
<path d="M102.356 32.3392C102.356 13.646 96.3296 10.0476 93.3615 10.0476C91.7425 10.0476 87.74 17.6183 84.3671 19.3942C82.5149 20.0031 80.5478 20.1341 78.6359 19.7758C76.724 19.4176 74.9249 18.5808 73.394 17.3379C73.394 16.0761 82.3884 11.4963 82.7481 9.06618C83.1079 6.63607 78.6107 0 75.5976 0C73.6638 0 68.9867 5.56122 63.725 9.34659C50.7992 16.8207 37.1202 22.7918 22.9356 27.1518C10.8831 30.2829 -1.60774e-09 34.6168 0 40.1781C1.60774e-09 45.7393 9.53394 51.7801 19.4727 51.7801H50.953L28.647 30.4231H36.2922L58.4633 51.7801H89.9436C104.38 51.7801 102.356 42.2933 102.356 32.3392ZM64.3546 47.6209L42.2735 26.2639H49.9187L71.9549 47.6209H64.3546ZM78.7007 43.742L56.6645 22.3851H64.2647L86.3009 43.742H78.7007Z" fill="#25BA00"/>
<path d="M34.5825 62.482L35.2571 55.7992C35.2635 55.7463 35.2589 55.6926 35.2438 55.6417C35.2286 55.5908 35.2031 55.5439 35.169 55.5041C35.1349 55.4642 35.0931 55.4324 35.0462 55.4108C34.9993 55.3892 34.9486 55.3782 34.8973 55.3786H25.9029C25.8498 55.3786 25.7971 55.3895 25.748 55.4106C25.6989 55.4318 25.6543 55.4627 25.6167 55.5018C25.5791 55.5408 25.5493 55.5872 25.529 55.6382C25.5086 55.6893 25.4982 55.744 25.4982 55.7992L26.1727 62.482C26.1935 62.5767 26.2451 62.661 26.3189 62.7207C26.3927 62.7803 26.4841 62.8116 26.5775 62.8091H34.0878C34.141 62.8316 34.1985 62.8405 34.2557 62.8351C34.3128 62.8297 34.3679 62.8102 34.4163 62.7782C34.4648 62.7462 34.5051 62.7026 34.534 62.651C34.5629 62.5995 34.5795 62.5416 34.5825 62.482Z" fill="#25BA00"/>
<path d="M96.6893 60.893L97.3639 54.2102C97.3639 54.1549 97.3534 54.1003 97.3331 54.0492C97.3127 53.9982 97.2829 53.9518 97.2453 53.9128C97.2078 53.8737 97.1631 53.8427 97.114 53.8216C97.0649 53.8005 97.0123 53.7896 96.9591 53.7896H87.9648C87.9135 53.7892 87.8627 53.8001 87.8159 53.8218C87.769 53.8434 87.7271 53.8752 87.6931 53.915C87.659 53.9549 87.6335 54.0018 87.6183 54.0527C87.6031 54.1036 87.5986 54.1573 87.605 54.2102L88.2796 60.893C88.2988 60.9925 88.3487 61.0829 88.4217 61.1503C88.4948 61.2178 88.5869 61.2587 88.6843 61.2669H96.1497C96.2088 61.2804 96.27 61.2815 96.3295 61.2699C96.389 61.2583 96.4457 61.2343 96.4961 61.1994C96.5465 61.1645 96.5896 61.1193 96.6228 61.0667C96.656 61.014 96.6786 60.9549 96.6893 60.893Z" fill="#25BA00"/>
<path d="M80.9494 61.3137L81.579 54.7243C81.5796 54.6081 81.5384 54.4958 81.4636 54.4094C81.3887 54.323 81.2856 54.2686 81.1742 54.257H72.1799C72.0972 54.2972 72.03 54.3652 71.9891 54.45C71.9483 54.5348 71.9363 54.6315 71.955 54.7243L72.6296 61.4071C72.6406 61.498 72.6833 61.5815 72.7496 61.6418C72.8159 61.7021 72.9012 61.735 72.9894 61.7343H80.4997C80.5565 61.7409 80.614 61.7349 80.6684 61.7167C80.7228 61.6986 80.7729 61.6687 80.8154 61.6289C80.8579 61.5892 80.8918 61.5405 80.9149 61.4862C80.938 61.4319 80.9497 61.3731 80.9494 61.3137Z" fill="#25BA00"/>
<path d="M21.3168 62.482L21.9914 55.7992C21.9914 55.7439 21.9809 55.6893 21.9606 55.6382C21.9402 55.5872 21.9104 55.5408 21.8728 55.5018C21.8352 55.4627 21.7906 55.4317 21.7415 55.4106C21.6924 55.3895 21.6398 55.3786 21.5866 55.3786H12.5922C12.5391 55.3786 12.4865 55.3895 12.4374 55.4106C12.3883 55.4317 12.3436 55.4627 12.3061 55.5018C12.2685 55.5408 12.2387 55.5872 12.2183 55.6382C12.198 55.6893 12.1875 55.7439 12.1875 55.7992L12.8621 62.482C12.8828 62.5767 12.9345 62.661 13.0082 62.7207C13.082 62.7803 13.1734 62.8115 13.2668 62.8091H20.7322C20.7904 62.8397 20.8548 62.8552 20.92 62.8543C20.9852 62.8534 21.0492 62.8362 21.1066 62.8041C21.164 62.7719 21.2131 62.7259 21.2497 62.6698C21.2863 62.6137 21.3093 62.5493 21.3168 62.482Z" fill="#25BA00"/>
<path d="M2.99097 95.6029V72.4376H20.3042V76.144H7.07835V82.4648H18.8088V86.1713H7.07835V95.6029H2.99097Z" fill="black"/>
<path d="M33.8491 96C31.1906 96 28.9753 95.1175 27.203 93.3525C25.4307 91.5876 24.5445 89.4365 24.5445 86.8993C24.5445 84.3622 25.4417 82.2111 27.2362 80.4461C29.0307 78.6591 31.2571 77.7656 33.9156 77.7656C36.574 77.7656 38.7894 78.6481 40.5617 80.4131C42.3562 82.178 43.2534 84.3401 43.2534 86.8993C43.2534 89.4144 42.3562 91.5655 40.5617 93.3525C38.7673 95.1175 36.5297 96 33.8491 96ZM33.9156 92.5252C35.5107 92.5252 36.7956 91.9847 37.7703 90.9036C38.7451 89.8226 39.2325 88.4878 39.2325 86.8993C39.2325 85.3329 38.723 84.0092 37.7039 82.9281C36.6848 81.825 35.3999 81.2735 33.8491 81.2735C32.2762 81.2735 31.0023 81.814 30.0276 82.8951C29.0528 83.9761 28.5654 85.3109 28.5654 86.8993C28.5654 88.4437 29.075 89.7674 30.094 90.8705C31.1131 91.9737 32.387 92.5252 33.9156 92.5252Z" fill="black"/>
<path d="M57.3508 96C54.6923 96 52.4769 95.1175 50.7046 93.3525C48.9323 91.5876 48.0462 89.4365 48.0462 86.8993C48.0462 84.3622 48.9434 82.2111 50.7379 80.4461C52.5323 78.6591 54.7588 77.7656 57.4173 77.7656C60.0757 77.7656 62.2911 78.6481 64.0634 80.4131C65.8579 82.178 66.7551 84.3401 66.7551 86.8993C66.7551 89.4144 65.8579 91.5655 64.0634 93.3525C62.269 95.1175 60.0314 96 57.3508 96ZM57.4173 92.5252C59.0123 92.5252 60.2973 91.9847 61.272 90.9036C62.2468 89.8226 62.7342 88.4878 62.7342 86.8993C62.7342 85.3329 62.2246 84.0092 61.2056 82.9281C60.1865 81.825 58.9016 81.2735 57.3508 81.2735C55.7779 81.2735 54.504 81.814 53.5293 82.8951C52.5545 83.9761 52.0671 85.3109 52.0671 86.8993C52.0671 88.4437 52.5766 89.7674 53.5957 90.8705C54.6148 91.9737 55.8886 92.5252 57.4173 92.5252Z" fill="black"/>
<path d="M78.3934 95.9007C75.026 95.9007 73.3423 94.1909 73.3423 90.7713V81.5713H71.1159V78.1296H73.3423V73.3311H77.3633V78.1296H82.082V81.5713H77.3633V90.1425C77.3633 91.5986 78.0833 92.3266 79.5233 92.3266C80.3873 92.3266 81.218 92.1281 82.0156 91.731V95.0072C80.9522 95.6029 79.7448 95.9007 78.3934 95.9007Z" fill="black"/>
<path d="M87.8029 95.6029V78.1296H91.8238V80.7771C93.286 78.7694 95.0694 77.7656 97.174 77.7656C99.6109 77.7656 101.35 78.7915 102.391 80.8433C103.964 78.7915 105.947 77.7656 108.34 77.7656C110.267 77.7656 111.773 78.3502 112.859 79.5195C113.944 80.6888 114.487 82.3325 114.487 84.4504V95.6029H110.466V85.6749C110.466 84.285 110.156 83.226 109.536 82.4979C108.916 81.7699 108.04 81.4059 106.911 81.4059C105.781 81.4059 104.872 81.7919 104.186 82.5641C103.499 83.3142 103.156 84.3732 103.156 85.7411V95.6029H99.1346V85.6418C99.1346 84.296 98.8244 83.2591 98.2041 82.531C97.5838 81.7809 96.7088 81.4059 95.5789 81.4059C94.4491 81.4059 93.5407 81.803 92.854 82.5972C92.1672 83.3694 91.8238 84.4284 91.8238 85.7742V95.6029H87.8029Z" fill="black"/>
<path d="M129.082 96C126.512 96 124.363 95.1506 122.635 93.4518C120.929 91.753 120.076 89.5578 120.076 86.8663C120.076 84.3291 120.885 82.178 122.502 80.4131C124.12 78.6481 126.169 77.7656 128.65 77.7656C131.308 77.7656 133.369 78.6701 134.831 80.4792C136.315 82.2663 137.057 84.4946 137.057 87.1641C137.057 87.6495 137.035 88.0245 136.991 88.2893H124.097C124.319 89.6792 124.884 90.7713 125.792 91.5655C126.7 92.3377 127.819 92.7238 129.148 92.7238C130.876 92.7238 132.46 92.0288 133.9 90.6389L136.26 92.7238C134.443 94.9079 132.051 96 129.082 96ZM124.064 85.6418H133.07C132.937 84.296 132.483 83.1929 131.707 82.3325C130.932 81.472 129.902 81.0418 128.617 81.0418C127.398 81.0418 126.379 81.472 125.56 82.3325C124.74 83.1708 124.241 84.2739 124.064 85.6418Z" fill="black"/>
</svg>
