<svg width="990" height="884" viewBox="0 0 990 884" fill="none" xmlns="http://www.w3.org/2000/svg">
<path d="M279.5 2.7C275.7 2.9 272.3 3.6 271.9 4.1C271.6 4.7 269.4 5.4 267.1 5.7C264.9 6 263 6.7 263 7.1C263 7.6 261.9 8 260.6 8C259.2 8 257.5 8.6 256.8 9.3C256.1 10.1 254.2 11 252.7 11.4C251.2 11.7 250 12.5 250 13C250 13.6 249.1 14 248 14C246.9 14 246 14.7 246 15.5C246 16.4 245.1 17 243.5 17C241.9 17 241 17.6 241 18.5C241 19.3 240.5 20 239.9 20C239.3 20 237.5 21.3 235.8 23C234.2 24.6 232.4 26 231.9 26C230.7 26 225 31.8 225 33C225 33.4 223.7 35.1 222.1 36.7C220.6 38.3 219 40.6 218.6 41.8C218.2 43 217.4 44 216.9 44C216.4 44 216 44.9 216 46C216 47.1 215.3 48 214.5 48C213.6 48 213 48.9 213 50.4C213 51.7 212.3 53 211.5 53.4C210.7 53.7 210 54.9 210 56.1C210 57.3 208.9 59.3 207.5 60.6C206.1 61.9 205 63.8 205 65C205 66.1 204.3 67 203.5 67C202.6 67 202 67.9 202 69.5C202 70.9 201.3 72.3 200.5 72.6C199.7 73 199 73.8 199 74.6C199 75.4 198.6 76 198 76C197.5 76 196.7 77.2 196.4 78.7C196 80.2 195.1 82.1 194.3 82.8C193.6 83.5 193 84.8 193 85.6C193 86.4 192.6 87 192.1 87C191.6 87 190.9 88.1 190.6 89.5C190.2 90.9 189.5 92 189 92C188.4 92 188 92.9 188 94C188 95.1 187.6 96 187.1 96C186.6 96 185.8 97 185.4 98.2C185.1 99.4 184.1 101 183.4 101.8C182.6 102.5 182 103.8 182 104.6C182 105.4 181.6 106 181.1 106C180.6 106 179.9 107.3 179.5 109C179.1 110.6 178.4 112 177.9 112C177.4 112 177 112.7 177 113.5C177 114.3 176.3 115 175.5 115C174.5 115 174 116 174 118C174 120 173.5 121 172.5 121C171.6 121 171 121.9 171 123.5C171 125.1 170.4 126 169.5 126C168.6 126 168 126.9 168 128.4C168 129.7 167.3 131 166.5 131.4C165.7 131.7 165 132.6 165 133.5C165 134.3 164.6 135 164 135C163.5 135 163 136.1 163 137.5C163 139.1 162.4 140 161.5 140C160.7 140 160 140.7 160 141.5C160 142.8 162.7 143 178 143H196V140.5C196 139.1 196.7 137.7 197.5 137.4C198.3 137 199 135.7 199 134.4C199 132.9 199.6 132 200.5 132C201.4 132 202 131.1 202 129.6C202 128.3 202.7 127 203.5 126.6C204.3 126.3 205 125.4 205 124.5C205 123.7 205.4 123 205.9 123C206.4 123 207.1 121.9 207.4 120.5C207.8 119.1 208.4 118 208.9 118C209.4 118 210.1 116.6 210.5 115C210.9 113.3 211.6 112 212.1 112C212.6 112 213 111.3 213 110.5C213 109.7 213.7 109 214.5 109C215.4 109 216 108.1 216 106.5C216 105.1 216.4 104 216.9 104C217.4 104 218.1 102.6 218.5 101C218.9 99.3 219.5 98 220 98C220.4 98 221.1 96.9 221.4 95.5C221.8 94.1 222.5 93 223 93C223.6 93 224 92.3 224 91.5C224 90.6 224.7 89.7 225.5 89.4C226.3 89 227 87.7 227 86.4C227 84.9 227.6 84 228.5 84C229.4 84 230 83.1 230 81.6C230 80.3 230.7 79 231.5 78.6C232.3 78.3 233 76.9 233 75.5C233 73.9 233.6 73 234.5 73C235.3 73 236 72.3 236 71.5C236 70.7 236.5 70 237 70C237.6 70 238 68.9 238 67.5C238 66.1 238.7 64.7 239.5 64.4C240.3 64 241 62.7 241 61.4C241 59.9 241.6 59 242.5 59C243.3 59 244 58.3 244 57.5C244 56.7 244.7 56 245.5 56C246.3 56 247 55.5 247 54.9C247 53.5 255.5 45 256.9 45C257.5 45 258 44.3 258 43.5C258 42.7 258.7 42 259.5 42C260.3 42 261 41.6 261 41C261 40.5 262.2 39.7 263.7 39.4C265.2 39 267.1 38.1 267.8 37.3C268.5 36.6 269.8 36 270.6 36C271.4 36 272 35.6 272 35.1C272 34.6 274.3 34 277.2 33.8C280.1 33.5 282.6 32.7 282.8 32.1C283.3 30.7 707 30.5 707 31.9C707 32.4 709.5 33.2 712.5 33.5C715.5 33.9 718 34.6 718 35C718 35.5 719.4 36.1 721 36.5C722.7 36.9 724 37.6 724 38.1C724 38.6 725.1 39 726.5 39C728.1 39 729 39.6 729 40.5C729 41.3 729.7 42 730.5 42C731.3 42 732 42.7 732 43.5C732 44.3 732.9 45 734 45C736.5 45 746 54.5 746 57C746 58.1 746.7 59 747.5 59C748.3 59 749 59.7 749 60.5C749 61.3 749.4 62 750 62C750.5 62 751.2 63.1 751.6 64.5C751.9 65.9 752.6 67 753 67C753.5 67 754.1 68.3 754.5 70C754.9 71.6 755.5 73 756 73C756.4 73 757.1 74.1 757.4 75.5C757.8 76.9 758.5 78 759 78C759.6 78 760 78.9 760 80C760 81.1 760.7 82 761.5 82C762.4 82 763 82.9 763 84.5C763 86.1 763.6 87 764.5 87C765.4 87 766 87.9 766 89.5C766 90.9 766.5 92 767 92C767.6 92 768 92.7 768 93.5C768 94.4 768.7 95.3 769.5 95.6C770.3 96 771 97.3 771 98.6C771 100.1 771.6 101 772.5 101C773.5 101 774 102 774 104C774 106 774.5 107 775.5 107C776.4 107 777 107.9 777 109.5C777 111.1 777.6 112 778.5 112C779.3 112 780 112.7 780 113.5C780 114.3 780.4 115 780.9 115C781.4 115 782.1 116.3 782.5 118C782.9 119.6 783.6 121 784.1 121C784.6 121 785 122.1 785 123.5C785 125.1 785.6 126 786.5 126C787.4 126 788 126.9 788 128.4C788 129.7 788.7 131 789.5 131.4C790.3 131.7 791 132.6 791 133.5C791 134.7 792.2 135 796.5 135C799.5 135 802 135.4 802 135.9C802 136.3 805 137 808.7 137.3C812.5 137.7 815.6 138.4 815.8 139C816 139.5 818.1 140 820.5 140C823 140 825.5 140.6 826.4 141.5C827.2 142.3 828.3 143 828.9 143C830.6 143 830.2 138.3 828.5 137.6C827.7 137.3 827 136.4 827 135.5C827 134.7 826.6 134 826 134C825.5 134 824.8 132.9 824.4 131.5C824.1 130.1 823.4 129 823 129C822.6 129 821.9 127.9 821.6 126.5C821.2 125.1 820.5 124 820 124C819.4 124 819 123.1 819 122.1C819 121 818.3 119.5 817.5 118.6C816.7 117.8 816 116.7 816 116.1C816 115.5 815.6 115 815 115C814.5 115 813.7 113.8 813.4 112.3C813 110.8 812.1 108.9 811.3 108.2C810.6 107.5 810 106.2 810 105.4C810 104.6 809.6 104 809 104C808.5 104 808 103.3 808 102.5C808 101.7 807.3 101 806.5 101C805.5 101 805 100 805 98C805 96 804.5 95 803.5 95C802.6 95 802 94.1 802 92.5C802 90.9 801.4 90 800.5 90C799.6 90 799 89.1 799 87.6C799 86.3 798.3 85 797.5 84.6C796.7 84.3 796 83.4 796 82.5C796 81.7 795.6 81 795.1 81C794.6 81 793.9 79.9 793.6 78.5C793.2 77.1 792.5 76 792 76C791.4 76 791 74.6 791 73C791 71 790.5 70 789.5 70C788.6 70 788 69.1 788 67.5C788 65.9 787.4 65 786.5 65C785.7 65 785 64.3 785 63.5C785 62.7 784.6 62 784.1 62C783.6 62 782.9 60.6 782.5 59C782.1 57.3 781.5 56 781 56C780.6 56 779.9 54.9 779.6 53.5C779.2 52.1 778.5 51 778 51C777.4 51 777 50.1 777 49C777 47.9 776.3 47 775.5 47C774.6 47 774 46.1 774 44.5C774 42.9 773.4 42 772.5 42C771.7 42 771 41.3 771 40.5C771 39.7 770.6 39 770.1 39C769.6 39 768.8 38 768.5 36.8C768.1 35.7 766.7 33.7 765.4 32.5C764.1 31.3 763 29.8 763 29.1C763 28.5 762.3 28 761.5 28C760.7 28 760 27.3 760 26.5C760 25.7 759.5 25 758.9 25C758.2 25 756.7 23.9 755.5 22.6C754.3 21.3 752.3 19.9 751.2 19.5C750 19.2 749 18.4 749 17.9C749 17.4 748.3 17 747.5 17C746.7 17 746 16.3 746 15.5C746 14.5 745 14 743 14C741 14 740 13.5 740 12.5C740 11.6 739.1 11 737.5 11C736.1 11 735 10.6 735 10.1C735 9.6 733.7 8.9 732 8.5C730.4 8.1 729 7.5 729 7C729 6.6 726.7 6 723.9 5.8C721.1 5.5 718.4 4.6 717.9 3.9C717.2 2.7 684.2 2.5 501.8 2.4C383.4 2.4 283.4 2.5 279.5 2.7Z" fill="white"/>
<path d="M690 166.9C690 167.4 684.5 167.9 677.8 168.2C669.6 168.5 665.5 169 665.2 169.8C665 170.6 662.3 171 657.5 171C652.3 171 649.7 171.4 648.6 172.5C647.7 173.4 645.3 174 642.2 174C639.4 174 637 174.5 636.8 175.1C636.6 175.7 634.2 176.4 631.5 176.7C628.7 177 626.2 177.7 625.9 178.2C625.6 178.7 623.4 179.4 621.1 179.7C618.9 180 617 180.7 617 181.1C617 181.6 615.7 182 614.1 182C612.5 182 610.5 182.7 609.6 183.5C608.8 184.3 607 185 605.6 185C604 185 603 185.6 603 186.5C603 187.5 602 188 600 188C598.4 188 597 188.4 597 189C597 189.5 595.8 190.3 594.3 190.6C592.8 191 590.9 191.9 590.2 192.7C589.5 193.4 588.2 194 587.4 194C586.6 194 586 194.4 586 195C586 195.5 584.9 196 583.5 196C582.1 196 580.7 196.7 580.4 197.5C580 198.3 578.7 199 577.4 199C575.9 199 575 199.6 575 200.5C575 201.3 574.3 202 573.5 202C572.7 202 572 202.4 572 203C572 203.5 570.9 204.2 569.5 204.6C568.1 204.9 567 205.6 567 206.1C567 206.6 566.4 207 565.7 207C565 207 563.7 207.9 562.7 209C561.8 210.1 560.3 211 559.5 211C558.7 211 558 211.4 558 212C558 212.5 557.3 213 556.5 213C555.7 213 555 213.7 555 214.5C555 215.3 554.3 216 553.5 216C552.7 216 552 216.7 552 217.5C552 218.3 551.5 219 550.9 219C549.5 219 547 221.5 547 222.9C547 223.5 546.3 224 545.5 224C544.7 224 544 224.7 544 225.5C544 226.3 543.3 227 542.5 227C541.7 227 541 227.7 541 228.5C541 229.3 540.3 230 539.5 230C538.7 230 538 230.5 538 231.1C538 231.7 536.2 234 534 236.1C531.8 238.3 530 240.9 530 242C530 243.1 529.3 244 528.5 244C527.7 244 527 244.7 527 245.5C527 246.3 526.6 247 526 247C525.5 247 524.8 248.1 524.4 249.5C524.1 250.9 523.4 252 522.9 252C522.4 252 522 252.7 522 253.5C522 254.3 521.3 255 520.5 255C519.5 255 519 256 519 258C519 260 518.5 261 517.5 261C516.6 261 516 262 516 263.6C516 265 515.3 266.8 514.5 267.6C513.7 268.5 513 270.2 513 271.5C513 272.7 512.3 274 511.5 274.4C510.6 274.7 510 276.2 510 278C510 279.6 509.6 281 509 281C508.5 281 508 282.8 508 284.9C508 287.1 507.3 289.5 506.5 290.4C505.5 291.3 505 293.8 505 297.4C505 300.9 504.5 303.4 503.5 304.4C502.2 305.6 502 310.4 502 335C502 359.6 502.2 364.4 503.5 365.6C504.5 366.6 505 369.1 505 372.5C505 375.4 505.5 378 506.1 378.2C506.6 378.4 507.4 380.4 507.7 382.8C508 385.1 508.7 387 509.1 387C509.6 387 510 388.3 510 389.9C510 391.5 510.7 393.5 511.5 394.4C512.3 395.2 513 397 513 398.4C513 400 513.6 401 514.5 401C515.5 401 516 402 516 404C516 406 516.5 407 517.5 407C518.4 407 519 407.9 519 409.4C519 410.7 519.7 412 520.5 412.4C521.3 412.7 522 414.1 522 415.5C522 417.1 522.6 418 523.5 418C524.3 418 525 418.7 525 419.5C525 420.3 525.4 421 525.9 421C526.4 421 527.1 422.1 527.4 423.5C527.8 424.9 528.5 426 529 426C529.6 426 530 426.7 530 427.5C530 428.3 530.7 429 531.5 429C532.3 429 533 429.5 533 430.1C533 430.7 534.4 432.5 536 434.2C537.7 435.8 539 437.6 539 438.1C539 439.2 542.7 443 543.8 443C544.2 443 546.5 444.8 548.8 447C551 449.2 553.4 451 554 451C554.5 451 555 451.7 555 452.5C555 453.3 555.7 454 556.5 454C557.3 454 558 454.7 558 455.5C558 456.4 558.9 457 560.5 457C562.1 457 563 457.6 563 458.5C563 459.3 563.9 460 565 460C566.1 460 567 460.4 567 461C567 461.5 568.1 462.2 569.5 462.6C570.9 462.9 572 463.6 572 464C572 464.5 573.4 465.1 575 465.5C576.7 465.9 578 466.6 578 467.1C578 467.6 579.1 468 580.5 468C581.9 468 583.3 468.7 583.6 469.5C584 470.3 585.3 471 586.6 471C588.1 471 589 471.6 589 472.5C589 473.6 590.1 474 592.9 474C595.4 474 597 474.5 597.4 475.5C597.7 476.3 599 477 600.4 477C601.7 477 603 477.5 603.2 478.1C603.4 478.6 605.4 479.4 607.8 479.7C610.1 480 612 480.6 612 481C612 481.4 613.8 482 616 482.4C618.2 482.7 620 483.5 620 484C620 484.6 621.8 485 624 485C626.9 485 628 485.4 628 486.5C628 487.6 629.1 488 632.1 488C634.4 488 636.8 488.7 637.6 489.5C638.5 490.3 640.4 491 642 491C643.6 491 645 491.5 645.2 492.1C645.4 492.7 647.9 493.5 650.8 493.8C653.7 494 656 494.6 656 495C656 495.4 657.9 496 660.2 496.3C662.6 496.6 664.6 497.4 664.8 497.9C665 498.5 666.9 499 669 499C671.1 499 673.5 499.7 674.4 500.5C675.2 501.4 677.7 502 680 502C682.3 502 684.8 502.6 685.6 503.5C686.5 504.4 689 505 691.5 505C693.9 505 696 505.5 696.2 506.1C696.4 506.7 698.9 507.5 701.8 507.8C704.7 508 707 508.6 707 509C707 509.4 709.3 510 712.2 510.2C715.1 510.5 717.6 511.3 717.8 511.9C718 512.5 720.1 513 722.5 513C725 513 727.5 513.6 728.4 514.5C729.3 515.4 731.8 516 734.9 516C738.8 516 740 516.4 740 517.5C740 518.6 741.2 519 744.5 519C747 519 749 519.4 749 520C749 520.5 750.8 521.3 753 521.6C755.2 522 757 522.6 757 523C757 523.4 758.8 524 761 524.4C763.2 524.7 765 525.5 765 526C765 526.6 766.4 527 768 527C770 527 771 527.5 771 528.5C771 529.5 772 530 774 530C776 530 777 530.5 777 531.5C777 532.3 777.9 533 779 533C780.2 533 782.1 534.1 783.4 535.5C784.7 536.9 786.1 538 786.6 538C787.8 538 791 541.7 791 543C791 543.6 791.7 544 792.5 544C793.3 544 794 544.7 794 545.5C794 546.3 794.7 547 795.5 547C796.3 547 797 547.7 797 548.5C797 549.3 797.4 550 797.9 550C798.4 550 799 551.8 799.4 554C799.7 556.2 800.5 558 801 558C802.6 558 802.2 566 800.5 567.6C799.7 568.5 799 570.5 799 572.1C799 573.7 798.6 575 798.1 575C797.6 575 796.9 576.1 796.6 577.5C796.2 578.9 795.5 580 795 580C794.4 580 794 580.7 794 581.5C794 582.3 793.3 583 792.5 583C791.7 583 791 583.7 791 584.5C791 585.3 790.3 586 789.5 586C788.7 586 788 586.7 788 587.5C788 588.4 787.1 589 785.6 589C784.3 589 783 589.7 782.6 590.5C782.3 591.3 780.9 592 779.5 592C778.1 592 777 592.4 777 593C777 593.5 775.2 594.3 773 594.6C770.8 595 769 595.6 769 596C769 596.4 766.4 597 763.3 597.2C760.2 597.5 757.4 598.2 757.2 598.8C756.7 600.3 716 600.5 716 599.1C716 598.5 712.9 597.8 709 597.4C705.2 597.1 702 596.4 702 596C702 595.6 700.4 594.9 698.5 594.6C696.6 594.2 695 593.5 695 593C695 592.4 693.9 592 692.6 592C691.2 592 689.5 591.3 688.6 590.5C687.8 589.7 686.4 589 685.6 589C684.7 589 684 588.3 684 587.5C684 586.7 683.3 586 682.5 586C681.7 586 681 585.6 681 585C681 584.5 679.9 583.8 678.5 583.4C677.1 583.1 676 582.2 676 581.4C676 580.6 675.6 580 675 580C674.5 580 673.8 578.9 673.4 577.5C673.1 576.1 672.2 575 671.4 575C670.6 575 670 574.3 670 573.5C670 572.7 669.6 572 669 572C668.5 572 667.8 570.9 667.4 569.5C667.1 568.1 666.4 567 666 567C665.5 567 664.9 565.7 664.5 564C664.1 562.4 663.4 561 662.9 561C662.4 561 662 559.7 662 558.1C662 556.5 661.3 554.5 660.5 553.6C659.7 552.8 659 551 659 549.6V547H575C503.2 547 491 547.2 491 548.4C491 549.2 491.5 550 492.1 550.2C492.8 550.4 493.5 554.4 493.8 560.3C494 565.6 494.6 570 495 570C495.4 570 496 572.8 496.4 576.2C496.7 579.7 497.5 582.6 498 582.8C498.6 583 499 584.9 499 587.1C499 589.7 499.5 591.3 500.5 591.6C501.5 592 502 593.6 502 596.2C502 598.4 502.7 600.8 503.5 601.6C504.3 602.5 505 604.5 505 606.1C505 607.7 505.4 609 506 609C506.5 609 507.2 610.1 507.6 611.5C507.9 612.9 508.6 614 509.1 614C509.6 614 510 615.1 510 616.5C510 617.9 510.7 619.3 511.5 619.6C512.3 620 513 621.3 513 622.6C513 624 513.7 625.3 514.5 625.6C515.3 626 516 627.3 516 628.6C516 630.1 516.6 631 517.5 631C518.3 631 519 631.9 519 633C519 634.2 520 636.1 521.3 637.3C522.6 638.5 523.9 640.3 524.3 641.2C524.6 642.2 525.4 643 526 643C526.5 643 527 643.9 527 645C527 646.1 527.7 647.3 528.5 647.6C529.3 648 530 648.8 530 649.6C530 650.4 530.7 651 531.5 651C532.3 651 533 651.5 533 652.1C533 654.2 548.8 670 551 670C551.5 670 552 670.7 552 671.5C552 672.3 552.7 673 553.5 673C554.3 673 555 673.7 555 674.5C555 675.3 555.7 676 556.5 676C557.3 676 558 676.7 558 677.5C558 678.3 558.7 679 559.5 679C560.3 679 561 679.4 561 679.9C561 680.4 562.1 681.1 563.5 681.4C564.9 681.8 566 682.5 566 683C566 683.6 566.7 684 567.5 684C568.3 684 569 684.7 569 685.5C569 686.4 569.9 687 571.5 687C572.9 687 574.3 687.7 574.6 688.5C575 689.3 575.8 690 576.6 690C577.4 690 578 690.4 578 691C578 691.5 579.1 692.2 580.5 692.6C581.9 692.9 583 693.6 583 694C583 694.5 584.4 695.1 586 695.5C587.7 695.9 589 696.5 589 697C589 697.4 590.1 698.1 591.5 698.4C592.9 698.8 594 699.5 594 700C594 700.6 595.4 701 597 701C599 701 600 701.5 600 702.5C600 703.4 601 704 602.6 704C604 704 605.8 704.7 606.6 705.5C607.5 706.3 609.5 707 611.1 707C612.7 707 614 707.4 614 708C614 708.5 615.8 709.3 618 709.6C620.2 710 622 710.6 622 711C622 711.4 623.9 712 626.2 712.3C628.6 712.6 630.6 713.4 630.8 713.9C631 714.5 632.9 715 635.1 715C637.7 715 639.3 715.5 639.6 716.5C640.1 717.6 641.8 718 646.5 718C650.5 718 653 718.4 653.2 719.2C653.4 719.8 656.4 720.5 660.1 720.8C663.6 721.1 666.8 721.7 667.1 722.2C667.5 722.8 672.8 723.5 678.9 723.8C685 724 690 724.7 690 725.1C690 725.6 708.2 726 730.5 726C753 726 771 725.6 771 725.1C771 724.6 776.4 724.1 783.1 723.8C789.9 723.6 795.4 722.9 795.8 722.3C796.2 721.8 800.1 721 804.5 720.7C808.9 720.4 812.6 719.6 812.8 719.1C813 718.5 815.8 718 819.1 718C823.7 718 825 717.7 825 716.5C825 715.4 826.2 715 830.1 715C833.2 715 835.7 714.4 836.6 713.5C837.5 712.7 839.4 712 841 712C842.6 712 844 711.5 844.2 710.9C844.4 710.4 846.4 709.6 848.8 709.3C851.1 709 853 708.4 853 708C853 707.6 854.8 707 857 706.6C859.2 706.3 861 705.5 861 705C861 704.4 862.4 704 864 704C866 704 867 703.5 867 702.5C867 701.5 868 701 870 701C871.7 701 873 700.6 873 700C873 699.5 874.1 698.8 875.5 698.4C876.9 698.1 878 697.4 878 697C878 696.6 879.1 695.9 880.5 695.6C881.9 695.2 883 694.5 883 694C883 693.4 884.4 693 886 693C888 693 889 692.5 889 691.5C889 690.7 889.7 690 890.5 690C891.3 690 892 689.6 892 689C892 688.5 893.1 687.8 894.4 687.4C895.8 687.1 897.1 686.2 897.4 685.4C897.7 684.6 898.6 684 899.5 684C900.3 684 901 683.6 901 683.1C901 682.6 902 681.8 903.3 681.4C904.5 681 906.5 679.7 907.7 678.4C908.9 677.1 910.4 676 911 676C911.5 676 912 675.3 912 674.5C912 673.6 912.9 673 914.5 673C915.9 673 917 672.5 917 671.9C917 671.3 919.6 668.2 922.8 665C930 657.5 931 656.3 931 655C931 654.5 931.7 654 932.5 654C933.3 654 934 653.4 934 652.6C934 651.8 934.7 651 935.5 650.6C936.3 650.3 937 649.4 937 648.5C937 647.7 937.4 647 938 647C938.5 647 939.2 645.9 939.6 644.5C939.9 643.1 940.6 642 941.1 642C941.6 642 942 641.3 942 640.5C942 639.7 942.7 639 943.5 639C944.4 639 945 638.1 945 636.5C945 634.9 945.6 634 946.5 634C947.5 634 948 633 948 631C948 629 948.5 628 949.5 628C950.4 628 951 627.1 951 625.5C951 624.1 951.5 623 952 623C952.6 623 953 622.1 953 621.1C953 620 953.6 618.5 954.3 617.8C955.1 617.1 956 614.7 956.3 612.5C956.7 610.3 957.4 608.4 958 608.2C958.5 608 959 606.1 959 603.9C959 601.1 959.4 600 960.5 600C961.6 600 962 598.7 962 594.6C962 591.1 962.5 589 963.2 588.8C964.1 588.5 964.6 585.4 964.9 579.4C965.1 574.5 965.6 570.2 966.2 569.9C967.6 569 967.5 521.7 966.1 521.2C965.4 521 965 518 965 514C965 509.2 964.5 506.7 963.5 505.6C962.6 504.7 962 502.2 962 499.1C962 495.2 961.6 494 960.5 494C959.4 494 959 492.8 959 489.5C959 486.2 958.6 485 957.5 485C956.6 485 956 484.1 956 482.5C956 481.1 955.6 480 955.1 480C954.6 480 953.9 478.6 953.5 477C953.1 475.3 952.5 474 952 474C951.6 474 950.9 472.9 950.6 471.5C950.2 470.1 949.5 469 949 469C948.4 469 948 468.1 948 467C948 465.9 947.3 465 946.5 465C945.6 465 945 464.1 945 462.5C945 460.9 944.4 460 943.5 460C942.7 460 942 459.3 942 458.5C942 457.7 941.6 457 941.1 457C940.6 457 939.8 456 939.5 454.8C939.1 453.7 937.7 451.7 936.4 450.5C935.1 449.3 934 447.8 934 447.1C934 446.5 933.3 446 932.5 446C931.7 446 931 445.3 931 444.5C931 443.7 930.3 443 929.5 443C928.7 443 928 442.3 928 441.5C928 440.7 927.5 440 926.9 440C926.3 440 924 438.2 921.9 436C919.7 433.8 917.4 432 916.8 432C916.1 431.9 914.4 430.6 913 429C911.7 427.3 910 426 909.3 426C908.6 426 908 425.6 908 425.1C908 424.6 907 423.8 905.8 423.4C904.5 423 902.5 421.7 901.3 420.4C900.1 419.1 898.2 418 897 418C895.9 418 895 417.3 895 416.5C895 415.7 894.1 415 893 415C891.9 415 891 414.6 891 414C891 413.5 889.9 412.8 888.5 412.4C887.1 412.1 886 411.4 886 411C886 410.6 884.2 410 882 409.6C879.8 409.3 878 408.6 878 408.1C878 407.6 876.7 406.9 875 406.5C873.4 406.1 872 405.4 872 404.9C872 404.4 870.7 404 869.1 404C867.5 404 865.5 403.3 864.6 402.5C863.8 401.7 862 401 860.6 401C859.2 401 858 400.6 858 400C858 399.5 856.3 398.8 854.3 398.4C852.2 398 850.2 397.3 849.9 396.8C849.6 396.3 847.4 395.6 845.1 395.3C842.9 395 841 394.3 841 393.9C841 393.4 839.2 393 837.1 393C834.9 393 832.5 392.3 831.6 391.5C830.8 390.7 828.4 390 826.1 390C823.1 390 822 389.6 822 388.5C822 387.4 820.9 387 817.9 387C815.6 387 813.2 386.3 812.4 385.5C811.5 384.6 809 384 806.5 384C804.1 384 802 383.5 801.8 382.9C801.6 382.3 799.1 381.5 796.2 381.2C793.3 381 791 380.4 791 380C791 379.6 788.7 379 785.8 378.8C782.9 378.5 780.4 377.7 780.2 377.1C780 376.5 777.9 376 775.5 376C773 376 770.5 375.4 769.6 374.5C768.7 373.6 766.3 373 763.2 373C759.7 373 758 372.6 757.6 371.5C757.2 370.4 755.5 370 751.6 370C748.6 370 746 369.5 745.8 368.9C745.6 368.4 743.6 367.6 741.2 367.3C738.9 367 737 366.4 737 366C737 365.6 734.7 365 731.8 364.8C728.9 364.5 726.4 363.7 726.2 363.1C726 362.5 724.1 362 721.9 362C719.1 362 718 361.6 718 360.5C718 359.4 716.8 359 713.5 359C710.2 359 709 358.6 709 357.5C709 356.4 707.9 356 705 356C702.8 356 701 355.6 701 355C701 354.5 699.9 353.8 698.5 353.4C697.1 353.1 696 352.4 696 352C696 351.5 694.7 350.9 693 350.5C691.4 350.1 690 349.5 690 349C690 348.6 688.9 347.9 687.5 347.6C686.1 347.2 685 346.5 685 346C685 345.4 684.1 345 683 345C681.9 345 681 344.5 681 343.9C681 342.5 678.5 340 677.1 340C676.5 340 676 339.3 676 338.5C676 337.7 675.3 337 674.5 337C673.7 337 673 336.3 673 335.5C673 334.7 672.3 334 671.5 334C670.5 334 670 333 670 331C670 329.3 669.6 328 669 328C668.4 328 668 325 668 321C668 317 668.4 314 669 314C669.6 314 670 312.2 670 310C670 307.1 670.4 306 671.5 306C672.3 306 673 305.4 673 304.7C673 303.2 682.4 294 683.9 294C684.5 294 685 293.5 685 293C685 292.4 686.1 292 687.4 292C688.8 292 690.5 291.3 691.4 290.5C692.2 289.7 694.6 289 697 289C699.7 289 701.3 288.5 701.6 287.5C702.1 286.2 705.4 286 722.6 286C740.1 286 743 286.2 743 287.5C743 288.7 744.3 289 748.5 289C751.5 289 754 289.4 754 289.9C754 290.4 755.4 291.1 757 291.5C758.7 291.9 760 292.6 760 293.1C760 293.6 761.1 294 762.5 294C763.9 294 765.3 294.7 765.6 295.5C766 296.3 767.3 297 768.6 297C770.1 297 771 297.6 771 298.5C771 299.3 771.7 300 772.5 300C773.3 300 774 300.7 774 301.5C774 302.3 774.7 303 775.5 303C776.3 303 777 303.7 777 304.5C777 305.3 777.7 306 778.5 306C779.3 306 780 306.7 780 307.5C780 308.3 780.4 309 781 309C781.5 309 782.2 310.1 782.6 311.5C782.9 312.9 783.6 314 784 314C784.4 314 785.1 315.1 785.4 316.5C785.8 317.9 786.5 319 787 319C787.6 319 788 320.5 788 322.4C788 324.3 788.7 326.5 789.5 327.4C790.3 328.2 791 329.8 791 330.9V333H872H953V328C953 325.2 952.6 323 952.1 323C951.6 323 951 319.8 950.8 315.8C950.6 311.4 949.9 308.5 949.2 308.2C948.5 308 948 305.8 948 302.5C948 299.1 947.5 296.6 946.5 295.6C945.7 294.8 945 292.5 945 290.5C945 288.5 944.3 286.2 943.5 285.4C942.7 284.5 942 282.5 942 280.9C942 279.3 941.6 278 941.1 278C940.6 278 939.9 276.6 939.5 275C939.1 273.3 938.4 272 937.9 272C937.4 272 937 270.9 937 269.5C937 268.1 936.3 266.7 935.5 266.4C934.7 266 934 264.7 934 263.4C934 261.9 933.4 261 932.5 261C931.5 261 931 260 931 258C931 256 930.5 255 929.5 255C928.7 255 928 254.3 928 253.5C928 252.7 927.6 252 927.1 252C926.6 252 925.9 250.9 925.6 249.5C925.2 248.1 924.5 247 924 247C923.4 247 923 246.3 923 245.5C923 244.7 922.3 244 921.5 244C920.6 244 920 243.1 920 241.5C920 239.9 919.4 239 918.5 239C917.7 239 917 238.5 917 238C917 237.4 915.9 235.9 914.5 234.6C913.1 233.3 912 231.8 912 231.1C912 230.5 911.3 230 910.5 230C909.7 230 909 229.3 909 228.5C909 227.7 908.3 227 907.5 227C906.7 227 906 226.3 906 225.5C906 224.7 905.3 224 904.5 224C903.7 224 903 223.3 903 222.5C903 221.7 902.5 221 901.9 221C900.5 221 898 218.5 898 217.1C898 216.5 897.5 216 897 216C896.4 216 894.9 214.9 893.7 213.6C892.5 212.3 890.5 211 889.3 210.6C888.2 210.2 886.9 209.3 886.6 208.5C886.3 207.7 885.4 207 884.5 207C883.7 207 883 206.6 883 206.1C883 205.6 881.9 204.9 880.5 204.6C879.1 204.2 878 203.5 878 203C878 202.4 877.3 202 876.5 202C875.7 202 875 201.3 875 200.5C875 199.6 874.1 199 872.6 199C871.3 199 870 198.3 869.6 197.5C869.3 196.7 867.9 196 866.5 196C865.1 196 864 195.6 864 195.1C864 194.6 862.7 193.9 861 193.5C859.4 193.1 858 192.5 858 192C858 191.6 856.9 190.9 855.5 190.6C854.1 190.2 853 189.5 853 189C853 188.4 851.7 188 850 188C848 188 847 187.5 847 186.5C847 185.6 846 185 844.4 185C843 185 841.2 184.3 840.4 183.5C839.5 182.7 837.5 182 835.9 182C834.3 182 833 181.6 833 181.1C833 180.6 831 179.9 828.5 179.6C826 179.2 824 178.5 824 178.1C824 177.6 821.7 177 818.8 176.8C815.9 176.5 813.4 175.7 813.2 175.1C813 174.5 810.7 174 807.8 174C804.7 174 802.3 173.4 801.4 172.5C800.3 171.4 797.7 171 792.5 171C787.7 171 785 170.6 784.8 169.8C784.5 169 780.4 168.5 772.2 168.2C765.5 167.9 760 167.4 760 166.9C760 166.4 744.4 166 725 166C705.6 166 690 166.4 690 166.9Z" fill="white"/>
<path d="M48 446V712H133.5H219V618.6V525.2L221.3 524.6C222.5 524.3 264.1 524 313.8 524H404V460V396H313.8C264.1 396 222.5 395.7 221.3 395.4L219 394.8V354.4V314H335H451V247V180H249.5H48V446Z" fill="#BE1E2D"/>
<path d="M928 371.5C928 372.3 928.7 373 929.5 373C930.4 373 931 373.9 931 375.5C931 376.9 931.7 378.3 932.5 378.6C933.3 379 934 380.3 934 381.6C934 383.1 934.6 384 935.5 384C936.3 384 937 384.7 937 385.5C937 386.3 937.4 387 937.9 387C938.4 387 939.1 388.3 939.5 390C939.9 391.6 940.6 393 941.1 393C941.6 393 942 393.6 942 394.4C942 395.2 942.6 396.5 943.3 397.2C943.9 397.9 945.4 400.3 946.5 402.5C947.6 404.7 949.1 407.1 949.7 407.8C950.4 408.5 951 409.8 951 410.6C951 411.4 951.4 412 951.9 412C952.4 412 953.1 413.2 953.5 414.7C953.8 416.2 955.2 418.4 956.6 419.7C957.9 420.9 959 422.4 959 423C959 423.5 959.7 424 960.5 424C961.3 424 962 424.5 962 425C962 426.2 963.5 428.2 966.3 430.8C967.2 431.7 968 432.9 968 433.4C968 433.9 969.1 435.3 970.5 436.6C971.9 437.9 973 439.8 973 441C973 442.1 973.7 443 974.5 443C975.3 443 976 443.7 976 444.5C976 445.3 976.7 446 977.5 446C978.4 446 979 446.9 979 448.4C979 449.7 979.7 451 980.5 451.4C981.3 451.7 982 453.1 982 454.5C982 455.9 982.5 457 983 457C983.6 457 984 457.7 984 458.5C984 459.3 984.6 460 985.4 460C986.3 460 986.9 457.9 987.4 453C987.8 449.1 988.5 446 989.1 446C990.3 446 990.3 435.3 989 434.8C988.5 434.6 987.7 430.9 987.4 426.5C987 422.1 986.3 418.2 985.8 417.9C985.3 417.6 984.6 415.4 984.3 413.1C984 410.9 983.4 409 983 409C982.6 409 982 407.2 981.6 405C981.3 402.8 980.6 401 980.1 401C979.6 401 978.9 399.9 978.6 398.5C978.2 397.1 977.5 396 977 396C976.4 396 976 395.1 976 394C976 392.9 975.6 392 975.1 392C974.6 392 973.8 391 973.4 389.8C973.1 388.6 972.1 387 971.4 386.2C970.6 385.5 970 384 970 382.9C970 381.9 969.6 381 969 381C968.5 381 967.8 379.9 967.4 378.5C967.1 377.1 966.4 376 965.9 376C965.4 376 965 375.3 965 374.5C965 373.7 964.3 373 963.5 373C962.7 373 962 372.3 962 371.5C962 370.2 959.4 370 945 370C930.6 370 928 370.2 928 371.5Z" fill="white"/>
<path d="M11.4 401.5C11.1 402.9 10.4 404 9.9 404C9.4 404 8.7 405.8 8.4 408C8 410.2 7.4 412 7 412C6.6 412 6 413.9 5.7 416.1C5.4 418.4 4.7 420.6 4 421C2.5 421.9 2.5 461.1 4 462C4.7 462.4 5.4 464.6 5.7 466.9C6 469.1 6.7 471 7.1 471C7.6 471 8 472.3 8 473.9C8 475.5 8.7 477.5 9.5 478.4C10.3 479.2 11 480.3 11 480.9C11 481.5 11.7 482 12.5 482C13.8 482 14 476.7 14 440.5C14 414 13.6 399 13 399C12.5 399 11.8 400.1 11.4 401.5Z" fill="white"/>
<path d="M166 750C166 751.1 166.5 752 167 752C167.6 752 168 753.1 168 754.5C168 755.9 168.6 757 169.3 757C169.9 757 171.4 759 172.4 761.3C173.5 763.6 175 766.1 175.7 766.8C176.4 767.5 177 768.8 177 769.6C177 770.4 177.4 771 177.9 771C178.4 771 179.1 772.3 179.5 774C179.9 775.6 180.5 777 181 777C181.4 777 182.1 778.1 182.4 779.5C182.8 780.9 183.5 782 184 782C184.6 782 185 782.7 185 783.5C185 784.4 185.7 785.3 186.5 785.6C187.3 786 188 787.3 188 788.6C188 790.1 188.6 791 189.5 791C190.4 791 191 791.9 191 793.5C191 794.9 191.5 796 192 796C192.6 796 193 796.7 193 797.5C193 798.4 193.7 799.3 194.5 799.6C195.3 800 196 801.3 196 802.6C196 804.1 196.6 805 197.5 805C198.4 805 199 805.9 199 807.4C199 808.7 199.7 810 200.5 810.4C201.3 810.7 202 812.1 202 813.5C202 815.1 202.6 816 203.5 816C204.3 816 205 816.7 205 817.5C205 818.3 205.4 819 205.9 819C206.4 819 207.1 820.4 207.5 822C207.9 823.6 208.5 825 209 825C209.4 825 210.1 826.1 210.4 827.5C210.8 828.9 211.5 830 212 830C212.6 830 213 831.1 213 832.5C213 834.1 213.6 835 214.5 835C215.3 835 216 835.9 216 837C216 838.1 216.4 839 217 839C217.5 839 218.2 840.1 218.6 841.5C218.9 842.9 219.8 844 220.6 844C221.4 844 222 844.7 222 845.5C222 846.3 222.5 847 223 847C223.6 847 224 847.7 224 848.5C224 849.3 224.7 850 225.5 850C226.3 850 227 850.7 227 851.5C227 852.3 227.7 853 228.5 853C229.3 853 230 853.7 230 854.5C230 855.3 230.7 856 231.5 856C232.3 856 233 856.4 233 857C233 857.5 233.7 858 234.5 858C235.3 858 236 858.7 236 859.5C236 860.3 236.7 861 237.5 861C238.3 861 239 861.7 239 862.5C239 863.4 239.9 864 241.5 864C243.1 864 244 864.6 244 865.5C244 866.3 244.7 867 245.5 867C246.3 867 247 867.4 247 867.9C247 868.4 248.1 869.1 249.5 869.4C250.9 869.8 252 870.5 252 871C252 871.6 253.4 872 255 872C257 872 258 872.5 258 873.5C258 874.6 259.1 875 262 875C264.9 875 266 875.4 266 876.5C266 877.6 267.3 878 271.4 878C274.9 878 277 878.5 277.3 879.2C277.9 881.1 714.1 881.1 714.8 879.2C715 878.5 716.9 878 719.5 878C722 878 724.5 877.4 725.4 876.5C726.2 875.7 728 875 729.4 875C730.8 875 732 874.6 732 874C732 873.5 733.2 872.7 734.7 872.4C736.2 872 738.1 871.1 738.8 870.3C739.5 869.6 740.8 869 741.6 869C742.4 869 743 868.6 743 868.1C743 867.6 744.2 866.9 745.7 866.5C747.2 866.2 749.4 864.8 750.7 863.4C751.9 862.1 753.4 861 754 861C754.5 861 755 860.6 755 860C755 859.5 756.1 858.8 757.5 858.4C758.9 858.1 760 857.3 760 856.8C760 856.3 761.4 854.5 763 852.8C764.7 851.2 766 849.2 766 848.4C766 847.6 766.7 847 767.5 847C768.3 847 769 846.3 769 845.5C769 844.7 769.5 844 770 844C770.6 844 771 843.3 771 842.5C771 841.7 771.7 841 772.5 841C773.4 841 774 840.1 774 838.5C774 836.9 774.6 836 775.5 836C776.4 836 777 835.1 777 833.6C777 832.3 777.7 831 778.5 830.6C779.3 830.3 780 829.4 780 828.5C780 827.7 780.4 827 780.9 827C781.4 827 782.1 825.9 782.4 824.5C782.8 823.1 783.5 822 784 822C784.6 822 785 821.1 785 820.1C785 819 785.7 817.5 786.5 816.6C787.3 815.8 788 814.7 788 814.1C788 813.5 788.4 813 789 813C789.5 813 790.2 811.9 790.6 810.5C790.9 809.1 791.6 808 792 808C792.5 808 793.1 806.6 793.5 805C793.9 803.3 794.5 802 795 802C795.4 802 796.1 800.9 796.4 799.5C796.8 798.1 797.5 797 798 797C798.6 797 799 796.1 799 795C799 793.9 799.7 793 800.5 793C801.4 793 802 792.1 802 790.5C802 788.9 802.6 788 803.5 788C804.4 788 805 787.1 805 785.6C805 784.3 805.7 783 806.5 782.6C807.3 782.3 808 780.9 808 779.5C808 778.1 808.5 777 809 777C809.6 777 810 776.3 810 775.5C810 774.7 810.7 774 811.5 774C812.4 774 813 773.1 813 771.5C813 770.1 813.7 768.7 814.5 768.4C815.3 768 816 766.7 816 765.4C816 763.9 816.6 763 817.5 763C818.4 763 819 762.1 819 760.9C819 759.7 819.8 758.1 820.8 757.4C823.5 755.4 821 753.6 816.6 754.4C814.6 754.8 813 755.5 813 755.9C813 756.4 808.9 757 803.8 757.2C798.4 757.6 794.4 758.2 794.2 758.9C794 759.5 792 760 789.8 760C786 760 783 761.7 783 764C783 764.6 782.3 765.3 781.5 765.6C780.7 766 780 767.3 780 768.6C780 770.1 779.4 771 778.5 771C777.6 771 777 771.9 777 773.5C777 774.9 776.3 776.3 775.5 776.6C774.7 777 774 778.3 774 779.6C774 781.1 773.4 782 772.5 782C771.7 782 771 782.7 771 783.5C771 784.3 770.6 785 770.1 785C769.6 785 768.9 786.4 768.5 788C768.1 789.7 767.5 791 767 791C766.6 791 765.9 792.1 765.6 793.5C765.2 794.9 764.5 796 764 796C763.4 796 763 796.9 763 798C763 799.1 762.3 800 761.5 800C760.6 800 760 800.9 760 802.5C760 803.9 759.6 805 759 805C758.5 805 757.8 806.1 757.4 807.5C757.1 808.9 756.4 810 756 810C755.5 810 754.9 811.4 754.5 813C754.1 814.7 753.4 816 752.9 816C752.4 816 752 816.7 752 817.5C752 818.3 751.3 819 750.5 819C749.6 819 749 819.9 749 821.5C749 822.9 748.3 824.3 747.5 824.6C746.7 825 746 825.7 746 826.2C746 827.5 740.4 833 739.1 833C738.5 833 738 833.7 738 834.5C738 835.3 737.3 836 736.5 836C735.7 836 735 836.7 735 837.5C735 838.3 734.3 839 733.5 839C732.7 839 732 839.4 732 839.9C732 840.4 730.9 841.1 729.5 841.4C728.1 841.8 727 842.5 727 843C727 843.6 726.1 844 725.1 844C724 844 722.5 844.7 721.6 845.5C720.8 846.3 719.2 847 718 847C716.8 847 715.2 847.7 714.4 848.5C713.4 849.5 710.9 850 706.9 850C703.6 850 701 850.4 701 851C701 851.7 631.7 852 495 852C376.4 852 289 851.6 289 851.1C289 850.6 286 850 282.3 849.8C278.4 849.6 275.5 848.9 275.2 848.2C275 847.5 273.5 847 271.9 847C270 847 269 846.5 269 845.5C269 844.6 268.1 844 266.5 844C265.1 844 264 843.6 264 843.1C264 842.6 262.7 841.9 261 841.5C259.4 841.1 258 840.2 258 839.4C258 838.6 257.3 838 256.5 838C255.7 838 255 837.5 255 837C255 836.4 254.3 836 253.5 836C252.7 836 252 835.3 252 834.5C252 833.7 251.3 833 250.5 833C249.7 833 249 832.5 249 831.9C249 831.2 247.9 829.7 246.5 828.4C245.1 827.1 244 825.6 244 825C244 824.5 243.6 824 243 824C242.5 824 241.8 822.9 241.4 821.5C241.1 820.1 240.4 819 240 819C239.5 819 238.9 817.6 238.5 816C238.1 814.4 237.5 813 237 813C236.6 813 235.9 811.9 235.6 810.5C235.2 809.1 234.5 808 234 808C233.4 808 233 807.3 233 806.5C233 805.7 232.3 805 231.5 805C230.5 805 230 804 230 802C230 800 229.5 799 228.5 799C227.6 799 227 798.1 227 796.6C227 795.3 226.3 794 225.5 793.6C224.7 793.3 224 792.2 224 791.1C224 790.1 223.3 789 222.5 788.6C221.7 788.3 221 787.4 221 786.5C221 785.7 220.6 785 220 785C219.5 785 219 783.9 219 782.5C219 780.9 218.4 780 217.5 780C216.5 780 216 779 216 777C216 775 215.5 774 214.5 774C213.7 774 213 773.3 213 772.5C213 771.7 212.6 771 212.1 771C211.6 771 210.9 769.6 210.5 768C210.1 766.3 209.4 765 208.9 765C208.4 765 207.8 763.9 207.4 762.5C207.1 761.1 206.4 760 206 760C205.6 760 204.9 758.9 204.6 757.5C204.2 756.1 203.5 755 203 755C202.4 755 202 754.1 202 753C202 751.9 201.3 751 200.5 751C199.7 751 199 750.3 199 749.5C199 748.2 196.5 748 182.5 748C166.7 748 166 748.1 166 750Z" fill="white"/>
</svg>
