<svg width="988" height="879" viewBox="0 0 988 879" fill="none" xmlns="http://www.w3.org/2000/svg">
<path d="M277.5 0.699998C273.7 0.899998 270.3 1.6 269.9 2.1C269.6 2.7 267.4 3.4 265.1 3.7C262.9 4 261 4.7 261 5.1C261 5.6 259.9 6 258.6 6C257.2 6 255.5 6.6 254.8 7.3C254.1 8.1 252.2 9 250.7 9.4C249.2 9.7 248 10.5 248 11C248 11.6 247.1 12 246 12C244.9 12 244 12.7 244 13.5C244 14.4 243.1 15 241.5 15C239.9 15 239 15.6 239 16.5C239 17.3 238.5 18 237.9 18C237.3 18 235.5 19.3 233.8 21C232.2 22.6 230.4 24 229.9 24C228.7 24 223 29.8 223 31C223 31.4 221.7 33.1 220.1 34.7C218.6 36.3 217 38.6 216.6 39.8C216.2 41 215.4 42 214.9 42C214.4 42 214 42.9 214 44C214 45.1 213.3 46 212.5 46C211.6 46 211 46.9 211 48.4C211 49.7 210.3 51 209.5 51.4C208.7 51.7 208 52.9 208 54.1C208 55.3 206.9 57.3 205.5 58.6C204.1 59.9 203 61.8 203 63C203 64.1 202.3 65 201.5 65C200.6 65 200 65.9 200 67.5C200 68.9 199.3 70.3 198.5 70.6C197.7 71 197 71.8 197 72.6C197 73.4 196.6 74 196 74C195.5 74 194.7 75.2 194.4 76.7C194 78.2 193.1 80.1 192.3 80.8C191.6 81.5 191 82.8 191 83.6C191 84.4 190.6 85 190.1 85C189.6 85 188.9 86.1 188.6 87.5C188.2 88.9 187.5 90 187 90C186.4 90 186 90.9 186 92C186 93.1 185.6 94 185.1 94C184.6 94 183.8 95 183.4 96.2C183.1 97.4 182.1 99 181.4 99.8C180.6 100.5 180 101.8 180 102.6C180 103.4 179.6 104 179.1 104C178.6 104 177.9 105.3 177.5 107C177.1 108.6 176.4 110 175.9 110C175.4 110 175 110.7 175 111.5C175 112.3 174.3 113 173.5 113C172.5 113 172 114 172 116C172 118 171.5 119 170.5 119C169.6 119 169 119.9 169 121.5C169 123.1 168.4 124 167.5 124C166.6 124 166 124.9 166 126.4C166 127.7 165.3 129 164.5 129.4C163.7 129.7 163 130.6 163 131.5C163 132.3 162.6 133 162 133C161.5 133 161 134.1 161 135.5C161 137.1 160.4 138 159.5 138C158.7 138 158 138.7 158 139.5C158 140.8 160.7 141 176 141H194V138.5C194 137.1 194.7 135.7 195.5 135.4C196.3 135 197 133.7 197 132.4C197 130.9 197.6 130 198.5 130C199.4 130 200 129.1 200 127.6C200 126.3 200.7 125 201.5 124.6C202.3 124.3 203 123.4 203 122.5C203 121.7 203.4 121 203.9 121C204.4 121 205.1 119.9 205.4 118.5C205.8 117.1 206.4 116 206.9 116C207.4 116 208.1 114.6 208.5 113C208.9 111.3 209.6 110 210.1 110C210.6 110 211 109.3 211 108.5C211 107.7 211.7 107 212.5 107C213.4 107 214 106.1 214 104.5C214 103.1 214.4 102 214.9 102C215.4 102 216.1 100.6 216.5 99C216.9 97.3 217.5 96 218 96C218.4 96 219.1 94.9 219.4 93.5C219.8 92.1 220.5 91 221 91C221.6 91 222 90.3 222 89.5C222 88.6 222.7 87.7 223.5 87.4C224.3 87 225 85.7 225 84.4C225 82.9 225.6 82 226.5 82C227.4 82 228 81.1 228 79.6C228 78.3 228.7 77 229.5 76.6C230.3 76.3 231 74.9 231 73.5C231 71.9 231.6 71 232.5 71C233.3 71 234 70.3 234 69.5C234 68.7 234.5 68 235 68C235.6 68 236 66.9 236 65.5C236 64.1 236.7 62.7 237.5 62.4C238.3 62 239 60.7 239 59.4C239 57.9 239.6 57 240.5 57C241.3 57 242 56.3 242 55.5C242 54.7 242.7 54 243.5 54C244.3 54 245 53.5 245 52.9C245 51.5 253.5 43 254.9 43C255.5 43 256 42.3 256 41.5C256 40.7 256.7 40 257.5 40C258.3 40 259 39.6 259 39C259 38.5 260.2 37.7 261.7 37.4C263.2 37 265.1 36.1 265.8 35.3C266.5 34.6 267.8 34 268.6 34C269.4 34 270 33.6 270 33.1C270 32.6 272.3 32 275.2 31.8C278.1 31.5 280.6 30.7 280.8 30.1C281.3 28.7 705 28.5 705 29.9C705 30.4 707.5 31.2 710.5 31.5C713.5 31.9 716 32.6 716 33C716 33.5 717.4 34.1 719 34.5C720.7 34.9 722 35.6 722 36.1C722 36.6 723.1 37 724.5 37C726.1 37 727 37.6 727 38.5C727 39.3 727.7 40 728.5 40C729.3 40 730 40.7 730 41.5C730 42.3 730.9 43 732 43C734.5 43 744 52.5 744 55C744 56.1 744.7 57 745.5 57C746.3 57 747 57.7 747 58.5C747 59.3 747.4 60 748 60C748.5 60 749.2 61.1 749.6 62.5C749.9 63.9 750.6 65 751 65C751.5 65 752.1 66.3 752.5 68C752.9 69.6 753.5 71 754 71C754.4 71 755.1 72.1 755.4 73.5C755.8 74.9 756.5 76 757 76C757.6 76 758 76.9 758 78C758 79.1 758.7 80 759.5 80C760.4 80 761 80.9 761 82.5C761 84.1 761.6 85 762.5 85C763.4 85 764 85.9 764 87.5C764 88.9 764.5 90 765 90C765.6 90 766 90.7 766 91.5C766 92.4 766.7 93.3 767.5 93.6C768.3 94 769 95.3 769 96.6C769 98.1 769.6 99 770.5 99C771.5 99 772 100 772 102C772 104 772.5 105 773.5 105C774.4 105 775 105.9 775 107.5C775 109.1 775.6 110 776.5 110C777.3 110 778 110.7 778 111.5C778 112.3 778.4 113 778.9 113C779.4 113 780.1 114.3 780.5 116C780.9 117.6 781.6 119 782.1 119C782.6 119 783 120.1 783 121.5C783 123.1 783.6 124 784.5 124C785.4 124 786 124.9 786 126.4C786 127.7 786.7 129 787.5 129.4C788.3 129.7 789 130.6 789 131.5C789 132.7 790.2 133 794.5 133C797.5 133 800 133.4 800 133.9C800 134.3 803 135 806.7 135.3C810.5 135.7 813.6 136.4 813.8 137C814 137.5 816.1 138 818.5 138C821 138 823.5 138.6 824.4 139.5C825.2 140.3 826.3 141 826.9 141C828.6 141 828.2 136.3 826.5 135.6C825.7 135.3 825 134.4 825 133.5C825 132.7 824.6 132 824 132C823.5 132 822.8 130.9 822.4 129.5C822.1 128.1 821.4 127 821 127C820.6 127 819.9 125.9 819.6 124.5C819.2 123.1 818.5 122 818 122C817.4 122 817 121.1 817 120.1C817 119 816.3 117.5 815.5 116.6C814.7 115.8 814 114.7 814 114.1C814 113.5 813.6 113 813 113C812.5 113 811.7 111.8 811.4 110.3C811 108.8 810.1 106.9 809.3 106.2C808.6 105.5 808 104.2 808 103.4C808 102.6 807.6 102 807 102C806.5 102 806 101.3 806 100.5C806 99.7 805.3 99 804.5 99C803.5 99 803 98 803 96C803 94 802.5 93 801.5 93C800.6 93 800 92.1 800 90.5C800 88.9 799.4 88 798.5 88C797.6 88 797 87.1 797 85.6C797 84.3 796.3 83 795.5 82.6C794.7 82.3 794 81.4 794 80.5C794 79.7 793.6 79 793.1 79C792.6 79 791.9 77.9 791.6 76.5C791.2 75.1 790.5 74 790 74C789.4 74 789 72.6 789 71C789 69 788.5 68 787.5 68C786.6 68 786 67.1 786 65.5C786 63.9 785.4 63 784.5 63C783.7 63 783 62.3 783 61.5C783 60.7 782.6 60 782.1 60C781.6 60 780.9 58.6 780.5 57C780.1 55.3 779.5 54 779 54C778.6 54 777.9 52.9 777.6 51.5C777.2 50.1 776.5 49 776 49C775.4 49 775 48.1 775 47C775 45.9 774.3 45 773.5 45C772.6 45 772 44.1 772 42.5C772 40.9 771.4 40 770.5 40C769.7 40 769 39.3 769 38.5C769 37.7 768.6 37 768.1 37C767.6 37 766.8 36 766.5 34.8C766.1 33.7 764.7 31.7 763.4 30.5C762.1 29.3 761 27.8 761 27.1C761 26.5 760.3 26 759.5 26C758.7 26 758 25.3 758 24.5C758 23.7 757.5 23 756.9 23C756.2 23 754.7 21.9 753.5 20.6C752.3 19.3 750.3 17.9 749.2 17.5C748 17.2 747 16.4 747 15.9C747 15.4 746.3 15 745.5 15C744.7 15 744 14.3 744 13.5C744 12.5 743 12 741 12C739 12 738 11.5 738 10.5C738 9.6 737.1 9 735.5 9C734.1 9 733 8.6 733 8.1C733 7.6 731.7 6.9 730 6.5C728.4 6.1 727 5.5 727 5C727 4.6 724.7 4 721.9 3.8C719.1 3.5 716.4 2.6 715.9 1.9C715.2 0.699998 682.2 0.499998 499.8 0.399998C381.4 0.399998 281.4 0.499998 277.5 0.699998Z" fill="#111111"/>
<path d="M688 164.9C688 165.4 682.5 165.9 675.8 166.2C667.6 166.5 663.5 167 663.2 167.8C663 168.6 660.3 169 655.5 169C650.3 169 647.7 169.4 646.6 170.5C645.7 171.4 643.3 172 640.2 172C637.4 172 635 172.5 634.8 173.1C634.6 173.7 632.2 174.4 629.5 174.7C626.7 175 624.2 175.7 623.9 176.2C623.6 176.7 621.4 177.4 619.1 177.7C616.9 178 615 178.7 615 179.1C615 179.6 613.7 180 612.1 180C610.5 180 608.5 180.7 607.6 181.5C606.8 182.3 605 183 603.6 183C602 183 601 183.6 601 184.5C601 185.5 600 186 598 186C596.4 186 595 186.4 595 187C595 187.5 593.8 188.3 592.3 188.6C590.8 189 588.9 189.9 588.2 190.7C587.5 191.4 586.2 192 585.4 192C584.6 192 584 192.4 584 193C584 193.5 582.9 194 581.5 194C580.1 194 578.7 194.7 578.4 195.5C578 196.3 576.7 197 575.4 197C573.9 197 573 197.6 573 198.5C573 199.3 572.3 200 571.5 200C570.7 200 570 200.4 570 201C570 201.5 568.9 202.2 567.5 202.6C566.1 202.9 565 203.6 565 204.1C565 204.6 564.4 205 563.7 205C563 205 561.7 205.9 560.7 207C559.8 208.1 558.3 209 557.5 209C556.7 209 556 209.4 556 210C556 210.5 555.3 211 554.5 211C553.7 211 553 211.7 553 212.5C553 213.3 552.3 214 551.5 214C550.7 214 550 214.7 550 215.5C550 216.3 549.5 217 548.9 217C547.5 217 545 219.5 545 220.9C545 221.5 544.3 222 543.5 222C542.7 222 542 222.7 542 223.5C542 224.3 541.3 225 540.5 225C539.7 225 539 225.7 539 226.5C539 227.3 538.3 228 537.5 228C536.7 228 536 228.5 536 229.1C536 229.7 534.2 232 532 234.1C529.8 236.3 528 238.9 528 240C528 241.1 527.3 242 526.5 242C525.7 242 525 242.7 525 243.5C525 244.3 524.6 245 524 245C523.5 245 522.8 246.1 522.4 247.5C522.1 248.9 521.4 250 520.9 250C520.4 250 520 250.7 520 251.5C520 252.3 519.3 253 518.5 253C517.5 253 517 254 517 256C517 258 516.5 259 515.5 259C514.6 259 514 260 514 261.6C514 263 513.3 264.8 512.5 265.6C511.7 266.5 511 268.2 511 269.5C511 270.7 510.3 272 509.5 272.4C508.6 272.7 508 274.2 508 276C508 277.6 507.6 279 507 279C506.5 279 506 280.8 506 282.9C506 285.1 505.3 287.5 504.5 288.4C503.5 289.3 503 291.8 503 295.4C503 298.9 502.5 301.4 501.5 302.4C500.2 303.6 500 308.4 500 333C500 357.6 500.2 362.4 501.5 363.6C502.5 364.6 503 367.1 503 370.5C503 373.4 503.5 376 504.1 376.2C504.6 376.4 505.4 378.4 505.7 380.8C506 383.1 506.7 385 507.1 385C507.6 385 508 386.3 508 387.9C508 389.5 508.7 391.5 509.5 392.4C510.3 393.2 511 395 511 396.4C511 398 511.6 399 512.5 399C513.5 399 514 400 514 402C514 404 514.5 405 515.5 405C516.4 405 517 405.9 517 407.4C517 408.7 517.7 410 518.5 410.4C519.3 410.7 520 412.1 520 413.5C520 415.1 520.6 416 521.5 416C522.3 416 523 416.7 523 417.5C523 418.3 523.4 419 523.9 419C524.4 419 525.1 420.1 525.4 421.5C525.8 422.9 526.5 424 527 424C527.6 424 528 424.7 528 425.5C528 426.3 528.7 427 529.5 427C530.3 427 531 427.5 531 428.1C531 428.7 532.4 430.5 534 432.2C535.7 433.8 537 435.6 537 436.1C537 437.2 540.7 441 541.8 441C542.2 441 544.5 442.8 546.8 445C549 447.2 551.4 449 552 449C552.5 449 553 449.7 553 450.5C553 451.3 553.7 452 554.5 452C555.3 452 556 452.7 556 453.5C556 454.4 556.9 455 558.5 455C560.1 455 561 455.6 561 456.5C561 457.3 561.9 458 563 458C564.1 458 565 458.4 565 459C565 459.5 566.1 460.2 567.5 460.6C568.9 460.9 570 461.6 570 462C570 462.5 571.4 463.1 573 463.5C574.7 463.9 576 464.6 576 465.1C576 465.6 577.1 466 578.5 466C579.9 466 581.3 466.7 581.6 467.5C582 468.3 583.3 469 584.6 469C586.1 469 587 469.6 587 470.5C587 471.6 588.1 472 590.9 472C593.4 472 595 472.5 595.4 473.5C595.7 474.3 597 475 598.4 475C599.7 475 601 475.5 601.2 476.1C601.4 476.6 603.4 477.4 605.8 477.7C608.1 478 610 478.6 610 479C610 479.4 611.8 480 614 480.4C616.2 480.7 618 481.5 618 482C618 482.6 619.8 483 622 483C624.9 483 626 483.4 626 484.5C626 485.6 627.1 486 630.1 486C632.4 486 634.8 486.7 635.6 487.5C636.5 488.3 638.4 489 640 489C641.6 489 643 489.5 643.2 490.1C643.4 490.7 645.9 491.5 648.8 491.8C651.7 492 654 492.6 654 493C654 493.4 655.9 494 658.2 494.3C660.6 494.6 662.6 495.4 662.8 495.9C663 496.5 664.9 497 667 497C669.1 497 671.5 497.7 672.4 498.5C673.2 499.4 675.7 500 678 500C680.3 500 682.8 500.6 683.6 501.5C684.5 502.4 687 503 689.5 503C691.9 503 694 503.5 694.2 504.1C694.4 504.7 696.9 505.5 699.8 505.8C702.7 506 705 506.6 705 507C705 507.4 707.3 508 710.2 508.2C713.1 508.5 715.6 509.3 715.8 509.9C716 510.5 718.1 511 720.5 511C723 511 725.5 511.6 726.4 512.5C727.3 513.4 729.8 514 732.9 514C736.8 514 738 514.4 738 515.5C738 516.6 739.2 517 742.5 517C745 517 747 517.4 747 518C747 518.5 748.8 519.3 751 519.6C753.2 520 755 520.6 755 521C755 521.4 756.8 522 759 522.4C761.2 522.7 763 523.5 763 524C763 524.6 764.4 525 766 525C768 525 769 525.5 769 526.5C769 527.5 770 528 772 528C774 528 775 528.5 775 529.5C775 530.3 775.9 531 777 531C778.2 531 780.1 532.1 781.4 533.5C782.7 534.9 784.1 536 784.6 536C785.8 536 789 539.7 789 541C789 541.6 789.7 542 790.5 542C791.3 542 792 542.7 792 543.5C792 544.3 792.7 545 793.5 545C794.3 545 795 545.7 795 546.5C795 547.3 795.4 548 795.9 548C796.4 548 797 549.8 797.4 552C797.7 554.2 798.5 556 799 556C800.6 556 800.2 564 798.5 565.6C797.7 566.5 797 568.5 797 570.1C797 571.7 796.6 573 796.1 573C795.6 573 794.9 574.1 794.6 575.5C794.2 576.9 793.5 578 793 578C792.4 578 792 578.7 792 579.5C792 580.3 791.3 581 790.5 581C789.7 581 789 581.7 789 582.5C789 583.3 788.3 584 787.5 584C786.7 584 786 584.7 786 585.5C786 586.4 785.1 587 783.6 587C782.3 587 781 587.7 780.6 588.5C780.3 589.3 778.9 590 777.5 590C776.1 590 775 590.4 775 591C775 591.5 773.2 592.3 771 592.6C768.8 593 767 593.6 767 594C767 594.4 764.4 595 761.3 595.2C758.2 595.5 755.4 596.2 755.2 596.8C754.7 598.3 714 598.5 714 597.1C714 596.5 710.9 595.8 707 595.4C703.2 595.1 700 594.4 700 594C700 593.6 698.4 592.9 696.5 592.6C694.6 592.2 693 591.5 693 591C693 590.4 691.9 590 690.6 590C689.2 590 687.5 589.3 686.6 588.5C685.8 587.7 684.4 587 683.6 587C682.7 587 682 586.3 682 585.5C682 584.7 681.3 584 680.5 584C679.7 584 679 583.6 679 583C679 582.5 677.9 581.8 676.5 581.4C675.1 581.1 674 580.2 674 579.4C674 578.6 673.6 578 673 578C672.5 578 671.8 576.9 671.4 575.5C671.1 574.1 670.2 573 669.4 573C668.6 573 668 572.3 668 571.5C668 570.7 667.6 570 667 570C666.5 570 665.8 568.9 665.4 567.5C665.1 566.1 664.4 565 664 565C663.5 565 662.9 563.7 662.5 562C662.1 560.4 661.4 559 660.9 559C660.4 559 660 557.7 660 556.1C660 554.5 659.3 552.5 658.5 551.6C657.7 550.8 657 549 657 547.6V545H573C501.2 545 489 545.2 489 546.4C489 547.2 489.5 548 490.1 548.2C490.8 548.4 491.5 552.4 491.8 558.3C492 563.6 492.6 568 493 568C493.4 568 494 570.8 494.4 574.2C494.7 577.7 495.5 580.6 496 580.8C496.6 581 497 582.9 497 585.1C497 587.7 497.5 589.3 498.5 589.6C499.5 590 500 591.6 500 594.2C500 596.4 500.7 598.8 501.5 599.6C502.3 600.5 503 602.5 503 604.1C503 605.7 503.4 607 504 607C504.5 607 505.2 608.1 505.6 609.5C505.9 610.9 506.6 612 507.1 612C507.6 612 508 613.1 508 614.5C508 615.9 508.7 617.3 509.5 617.6C510.3 618 511 619.3 511 620.6C511 622 511.7 623.3 512.5 623.6C513.3 624 514 625.3 514 626.6C514 628.1 514.6 629 515.5 629C516.3 629 517 629.9 517 631C517 632.2 518 634.1 519.3 635.3C520.6 636.5 521.9 638.3 522.3 639.2C522.6 640.2 523.4 641 524 641C524.5 641 525 641.9 525 643C525 644.1 525.7 645.3 526.5 645.6C527.3 646 528 646.8 528 647.6C528 648.4 528.7 649 529.5 649C530.3 649 531 649.5 531 650.1C531 652.2 546.8 668 549 668C549.5 668 550 668.7 550 669.5C550 670.3 550.7 671 551.5 671C552.3 671 553 671.7 553 672.5C553 673.3 553.7 674 554.5 674C555.3 674 556 674.7 556 675.5C556 676.3 556.7 677 557.5 677C558.3 677 559 677.4 559 677.9C559 678.4 560.1 679.1 561.5 679.4C562.9 679.8 564 680.5 564 681C564 681.6 564.7 682 565.5 682C566.3 682 567 682.7 567 683.5C567 684.4 567.9 685 569.5 685C570.9 685 572.3 685.7 572.6 686.5C573 687.3 573.8 688 574.6 688C575.4 688 576 688.4 576 689C576 689.5 577.1 690.2 578.5 690.6C579.9 690.9 581 691.6 581 692C581 692.5 582.4 693.1 584 693.5C585.7 693.9 587 694.5 587 695C587 695.4 588.1 696.1 589.5 696.4C590.9 696.8 592 697.5 592 698C592 698.6 593.4 699 595 699C597 699 598 699.5 598 700.5C598 701.4 599 702 600.6 702C602 702 603.8 702.7 604.6 703.5C605.5 704.3 607.5 705 609.1 705C610.7 705 612 705.4 612 706C612 706.5 613.8 707.3 616 707.6C618.2 708 620 708.6 620 709C620 709.4 621.9 710 624.2 710.3C626.6 710.6 628.6 711.4 628.8 711.9C629 712.5 630.9 713 633.1 713C635.7 713 637.3 713.5 637.6 714.5C638.1 715.6 639.8 716 644.5 716C648.5 716 651 716.4 651.2 717.2C651.4 717.8 654.4 718.5 658.1 718.8C661.6 719.1 664.8 719.7 665.1 720.2C665.5 720.8 670.8 721.5 676.9 721.8C683 722 688 722.7 688 723.1C688 723.6 706.2 724 728.5 724C751 724 769 723.6 769 723.1C769 722.6 774.4 722.1 781.1 721.8C787.9 721.6 793.4 720.9 793.8 720.3C794.2 719.8 798.1 719 802.5 718.7C806.9 718.4 810.6 717.6 810.8 717.1C811 716.5 813.8 716 817.1 716C821.7 716 823 715.7 823 714.5C823 713.4 824.2 713 828.1 713C831.2 713 833.7 712.4 834.6 711.5C835.5 710.7 837.4 710 839 710C840.6 710 842 709.5 842.2 708.9C842.4 708.4 844.4 707.6 846.8 707.3C849.1 707 851 706.4 851 706C851 705.6 852.8 705 855 704.6C857.2 704.3 859 703.5 859 703C859 702.4 860.4 702 862 702C864 702 865 701.5 865 700.5C865 699.5 866 699 868 699C869.7 699 871 698.6 871 698C871 697.5 872.1 696.8 873.5 696.4C874.9 696.1 876 695.4 876 695C876 694.6 877.1 693.9 878.5 693.6C879.9 693.2 881 692.5 881 692C881 691.4 882.4 691 884 691C886 691 887 690.5 887 689.5C887 688.7 887.7 688 888.5 688C889.3 688 890 687.6 890 687C890 686.5 891.1 685.8 892.4 685.4C893.8 685.1 895.1 684.2 895.4 683.4C895.7 682.6 896.6 682 897.5 682C898.3 682 899 681.6 899 681.1C899 680.6 900 679.8 901.3 679.4C902.5 679 904.5 677.7 905.7 676.4C906.9 675.1 908.4 674 909 674C909.5 674 910 673.3 910 672.5C910 671.6 910.9 671 912.5 671C913.9 671 915 670.5 915 669.9C915 669.3 917.6 666.2 920.8 663C928 655.5 929 654.3 929 653C929 652.5 929.7 652 930.5 652C931.3 652 932 651.4 932 650.6C932 649.8 932.7 649 933.5 648.6C934.3 648.3 935 647.4 935 646.5C935 645.7 935.4 645 936 645C936.5 645 937.2 643.9 937.6 642.5C937.9 641.1 938.6 640 939.1 640C939.6 640 940 639.3 940 638.5C940 637.7 940.7 637 941.5 637C942.4 637 943 636.1 943 634.5C943 632.9 943.6 632 944.5 632C945.5 632 946 631 946 629C946 627 946.5 626 947.5 626C948.4 626 949 625.1 949 623.5C949 622.1 949.5 621 950 621C950.6 621 951 620.1 951 619.1C951 618 951.6 616.5 952.3 615.8C953.1 615.1 954 612.7 954.3 610.5C954.7 608.3 955.4 606.4 956 606.2C956.5 606 957 604.1 957 601.9C957 599.1 957.4 598 958.5 598C959.6 598 960 596.7 960 592.6C960 589.1 960.5 587 961.2 586.8C962.1 586.5 962.6 583.4 962.9 577.4C963.1 572.5 963.6 568.2 964.2 567.9C965.6 567 965.5 519.7 964.1 519.2C963.4 519 963 516 963 512C963 507.2 962.5 504.7 961.5 503.6C960.6 502.7 960 500.2 960 497.1C960 493.2 959.6 492 958.5 492C957.4 492 957 490.8 957 487.5C957 484.2 956.6 483 955.5 483C954.6 483 954 482.1 954 480.5C954 479.1 953.6 478 953.1 478C952.6 478 951.9 476.6 951.5 475C951.1 473.3 950.5 472 950 472C949.6 472 948.9 470.9 948.6 469.5C948.2 468.1 947.5 467 947 467C946.4 467 946 466.1 946 465C946 463.9 945.3 463 944.5 463C943.6 463 943 462.1 943 460.5C943 458.9 942.4 458 941.5 458C940.7 458 940 457.3 940 456.5C940 455.7 939.6 455 939.1 455C938.6 455 937.8 454 937.5 452.8C937.1 451.7 935.7 449.7 934.4 448.5C933.1 447.3 932 445.8 932 445.1C932 444.5 931.3 444 930.5 444C929.7 444 929 443.3 929 442.5C929 441.7 928.3 441 927.5 441C926.7 441 926 440.3 926 439.5C926 438.7 925.5 438 924.9 438C924.3 438 922 436.2 919.9 434C917.7 431.8 915.4 430 914.8 430C914.1 429.9 912.4 428.6 911 427C909.7 425.3 908 424 907.3 424C906.6 424 906 423.6 906 423.1C906 422.6 905 421.8 903.8 421.4C902.5 421 900.5 419.7 899.3 418.4C898.1 417.1 896.2 416 895 416C893.9 416 893 415.3 893 414.5C893 413.7 892.1 413 891 413C889.9 413 889 412.6 889 412C889 411.5 887.9 410.8 886.5 410.4C885.1 410.1 884 409.4 884 409C884 408.6 882.2 408 880 407.6C877.8 407.3 876 406.6 876 406.1C876 405.6 874.7 404.9 873 404.5C871.4 404.1 870 403.4 870 402.9C870 402.4 868.7 402 867.1 402C865.5 402 863.5 401.3 862.6 400.5C861.8 399.7 860 399 858.6 399C857.2 399 856 398.6 856 398C856 397.5 854.3 396.8 852.3 396.4C850.2 396 848.2 395.3 847.9 394.8C847.6 394.3 845.4 393.6 843.1 393.3C840.9 393 839 392.3 839 391.9C839 391.4 837.2 391 835.1 391C832.9 391 830.5 390.3 829.6 389.5C828.8 388.7 826.4 388 824.1 388C821.1 388 820 387.6 820 386.5C820 385.4 818.9 385 815.9 385C813.6 385 811.2 384.3 810.4 383.5C809.5 382.6 807 382 804.5 382C802.1 382 800 381.5 799.8 380.9C799.6 380.3 797.1 379.5 794.2 379.2C791.3 379 789 378.4 789 378C789 377.6 786.7 377 783.8 376.8C780.9 376.5 778.4 375.7 778.2 375.1C778 374.5 775.9 374 773.5 374C771 374 768.5 373.4 767.6 372.5C766.7 371.6 764.3 371 761.2 371C757.7 371 756 370.6 755.6 369.5C755.2 368.4 753.5 368 749.6 368C746.6 368 744 367.5 743.8 366.9C743.6 366.4 741.6 365.6 739.2 365.3C736.9 365 735 364.4 735 364C735 363.6 732.7 363 729.8 362.8C726.9 362.5 724.4 361.7 724.2 361.1C724 360.5 722.1 360 719.9 360C717.1 360 716 359.6 716 358.5C716 357.4 714.8 357 711.5 357C708.2 357 707 356.6 707 355.5C707 354.4 705.9 354 703 354C700.8 354 699 353.6 699 353C699 352.5 697.9 351.8 696.5 351.4C695.1 351.1 694 350.4 694 350C694 349.5 692.7 348.9 691 348.5C689.4 348.1 688 347.5 688 347C688 346.6 686.9 345.9 685.5 345.6C684.1 345.2 683 344.5 683 344C683 343.4 682.1 343 681 343C679.9 343 679 342.5 679 341.9C679 340.5 676.5 338 675.1 338C674.5 338 674 337.3 674 336.5C674 335.7 673.3 335 672.5 335C671.7 335 671 334.3 671 333.5C671 332.7 670.3 332 669.5 332C668.5 332 668 331 668 329C668 327.3 667.6 326 667 326C666.4 326 666 323 666 319C666 315 666.4 312 667 312C667.6 312 668 310.2 668 308C668 305.1 668.4 304 669.5 304C670.3 304 671 303.4 671 302.7C671 301.2 680.4 292 681.9 292C682.5 292 683 291.5 683 291C683 290.4 684.1 290 685.4 290C686.8 290 688.5 289.3 689.4 288.5C690.2 287.7 692.6 287 695 287C697.7 287 699.3 286.5 699.6 285.5C700.1 284.2 703.4 284 720.6 284C738.1 284 741 284.2 741 285.5C741 286.7 742.3 287 746.5 287C749.5 287 752 287.4 752 287.9C752 288.4 753.4 289.1 755 289.5C756.7 289.9 758 290.6 758 291.1C758 291.6 759.1 292 760.5 292C761.9 292 763.3 292.7 763.6 293.5C764 294.3 765.3 295 766.6 295C768.1 295 769 295.6 769 296.5C769 297.3 769.7 298 770.5 298C771.3 298 772 298.7 772 299.5C772 300.3 772.7 301 773.5 301C774.3 301 775 301.7 775 302.5C775 303.3 775.7 304 776.5 304C777.3 304 778 304.7 778 305.5C778 306.3 778.4 307 779 307C779.5 307 780.2 308.1 780.6 309.5C780.9 310.9 781.6 312 782 312C782.4 312 783.1 313.1 783.4 314.5C783.8 315.9 784.5 317 785 317C785.6 317 786 318.5 786 320.4C786 322.3 786.7 324.5 787.5 325.4C788.3 326.2 789 327.8 789 328.9V331H870H951V326C951 323.2 950.6 321 950.1 321C949.6 321 949 317.8 948.8 313.8C948.6 309.4 947.9 306.5 947.2 306.2C946.5 306 946 303.8 946 300.5C946 297.1 945.5 294.6 944.5 293.6C943.7 292.8 943 290.5 943 288.5C943 286.5 942.3 284.2 941.5 283.4C940.7 282.5 940 280.5 940 278.9C940 277.3 939.6 276 939.1 276C938.6 276 937.9 274.6 937.5 273C937.1 271.3 936.4 270 935.9 270C935.4 270 935 268.9 935 267.5C935 266.1 934.3 264.7 933.5 264.4C932.7 264 932 262.7 932 261.4C932 259.9 931.4 259 930.5 259C929.5 259 929 258 929 256C929 254 928.5 253 927.5 253C926.7 253 926 252.3 926 251.5C926 250.7 925.6 250 925.1 250C924.6 250 923.9 248.9 923.6 247.5C923.2 246.1 922.5 245 922 245C921.4 245 921 244.3 921 243.5C921 242.7 920.3 242 919.5 242C918.6 242 918 241.1 918 239.5C918 237.9 917.4 237 916.5 237C915.7 237 915 236.5 915 236C915 235.4 913.9 233.9 912.5 232.6C911.1 231.3 910 229.8 910 229.1C910 228.5 909.3 228 908.5 228C907.7 228 907 227.3 907 226.5C907 225.7 906.3 225 905.5 225C904.7 225 904 224.3 904 223.5C904 222.7 903.3 222 902.5 222C901.7 222 901 221.3 901 220.5C901 219.7 900.5 219 899.9 219C898.5 219 896 216.5 896 215.1C896 214.5 895.5 214 895 214C894.4 214 892.9 212.9 891.7 211.6C890.5 210.3 888.5 209 887.3 208.6C886.2 208.2 884.9 207.3 884.6 206.5C884.3 205.7 883.4 205 882.5 205C881.7 205 881 204.6 881 204.1C881 203.6 879.9 202.9 878.5 202.6C877.1 202.2 876 201.5 876 201C876 200.4 875.3 200 874.5 200C873.7 200 873 199.3 873 198.5C873 197.6 872.1 197 870.6 197C869.3 197 868 196.3 867.6 195.5C867.3 194.7 865.9 194 864.5 194C863.1 194 862 193.6 862 193.1C862 192.6 860.7 191.9 859 191.5C857.4 191.1 856 190.5 856 190C856 189.6 854.9 188.9 853.5 188.6C852.1 188.2 851 187.5 851 187C851 186.4 849.7 186 848 186C846 186 845 185.5 845 184.5C845 183.6 844 183 842.4 183C841 183 839.2 182.3 838.4 181.5C837.5 180.7 835.5 180 833.9 180C832.3 180 831 179.6 831 179.1C831 178.6 829 177.9 826.5 177.6C824 177.2 822 176.5 822 176.1C822 175.6 819.7 175 816.8 174.8C813.9 174.5 811.4 173.7 811.2 173.1C811 172.5 808.7 172 805.8 172C802.7 172 800.3 171.4 799.4 170.5C798.3 169.4 795.7 169 790.5 169C785.7 169 783 168.6 782.8 167.8C782.5 167 778.4 166.5 770.2 166.2C763.5 165.9 758 165.4 758 164.9C758 164.4 742.4 164 723 164C703.6 164 688 164.4 688 164.9Z" fill="#111111"/>
<path d="M46 444V710H131.5H217V616.6V523.2L219.3 522.6C220.5 522.3 262.1 522 311.8 522H402V458V394H311.8C262.1 394 220.5 393.7 219.3 393.4L217 392.8V352.4V312H333H449V245V178H247.5H46V444Z" fill="#BE1E2D"/>
<path d="M926 369.5C926 370.3 926.7 371 927.5 371C928.4 371 929 371.9 929 373.5C929 374.9 929.7 376.3 930.5 376.6C931.3 377 932 378.3 932 379.6C932 381.1 932.6 382 933.5 382C934.3 382 935 382.7 935 383.5C935 384.3 935.4 385 935.9 385C936.4 385 937.1 386.3 937.5 388C937.9 389.6 938.6 391 939.1 391C939.6 391 940 391.6 940 392.4C940 393.2 940.6 394.5 941.3 395.2C941.9 395.9 943.4 398.3 944.5 400.5C945.6 402.7 947.1 405.1 947.7 405.8C948.4 406.5 949 407.8 949 408.6C949 409.4 949.4 410 949.9 410C950.4 410 951.1 411.2 951.5 412.7C951.8 414.2 953.2 416.4 954.6 417.7C955.9 418.9 957 420.4 957 421C957 421.5 957.7 422 958.5 422C959.3 422 960 422.5 960 423C960 424.2 961.5 426.2 964.3 428.8C965.2 429.7 966 430.9 966 431.4C966 431.9 967.1 433.3 968.5 434.6C969.9 435.9 971 437.8 971 439C971 440.1 971.7 441 972.5 441C973.3 441 974 441.7 974 442.5C974 443.3 974.7 444 975.5 444C976.4 444 977 444.9 977 446.4C977 447.7 977.7 449 978.5 449.4C979.3 449.7 980 451.1 980 452.5C980 453.9 980.5 455 981 455C981.6 455 982 455.7 982 456.5C982 457.3 982.6 458 983.4 458C984.3 458 984.9 455.9 985.4 451C985.8 447.1 986.5 444 987.1 444C988.3 444 988.3 433.3 987 432.8C986.5 432.6 985.7 428.9 985.4 424.5C985 420.1 984.3 416.2 983.8 415.9C983.3 415.6 982.6 413.4 982.3 411.1C982 408.9 981.4 407 981 407C980.6 407 980 405.2 979.6 403C979.3 400.8 978.6 399 978.1 399C977.6 399 976.9 397.9 976.6 396.5C976.2 395.1 975.5 394 975 394C974.4 394 974 393.1 974 392C974 390.9 973.6 390 973.1 390C972.6 390 971.8 389 971.4 387.8C971.1 386.6 970.1 385 969.4 384.2C968.6 383.5 968 382 968 380.9C968 379.9 967.6 379 967 379C966.5 379 965.8 377.9 965.4 376.5C965.1 375.1 964.4 374 963.9 374C963.4 374 963 373.3 963 372.5C963 371.7 962.3 371 961.5 371C960.7 371 960 370.3 960 369.5C960 368.2 957.4 368 943 368C928.6 368 926 368.2 926 369.5Z" fill="#111111"/>
<path d="M9.4 399.5C9.1 400.9 8.4 402 7.9 402C7.4 402 6.7 403.8 6.4 406C6 408.2 5.4 410 5 410C4.6 410 4 411.9 3.7 414.1C3.4 416.4 2.7 418.6 2 419C0.5 419.9 0.5 459.1 2 460C2.7 460.4 3.4 462.6 3.7 464.9C4 467.1 4.7 469 5.1 469C5.6 469 6 470.3 6 471.9C6 473.5 6.7 475.5 7.5 476.4C8.3 477.2 9 478.3 9 478.9C9 479.5 9.7 480 10.5 480C11.8 480 12 474.7 12 438.5C12 412 11.6 397 11 397C10.5 397 9.8 398.1 9.4 399.5Z" fill="#111111"/>
<path d="M164 748C164 749.1 164.5 750 165 750C165.6 750 166 751.1 166 752.5C166 753.9 166.6 755 167.3 755C167.9 755 169.4 757 170.4 759.3C171.5 761.6 173 764.1 173.7 764.8C174.4 765.5 175 766.8 175 767.6C175 768.4 175.4 769 175.9 769C176.4 769 177.1 770.3 177.5 772C177.9 773.6 178.5 775 179 775C179.4 775 180.1 776.1 180.4 777.5C180.8 778.9 181.5 780 182 780C182.6 780 183 780.7 183 781.5C183 782.4 183.7 783.3 184.5 783.6C185.3 784 186 785.3 186 786.6C186 788.1 186.6 789 187.5 789C188.4 789 189 789.9 189 791.5C189 792.9 189.5 794 190 794C190.6 794 191 794.7 191 795.5C191 796.4 191.7 797.3 192.5 797.6C193.3 798 194 799.3 194 800.6C194 802.1 194.6 803 195.5 803C196.4 803 197 803.9 197 805.4C197 806.7 197.7 808 198.5 808.4C199.3 808.7 200 810.1 200 811.5C200 813.1 200.6 814 201.5 814C202.3 814 203 814.7 203 815.5C203 816.3 203.4 817 203.9 817C204.4 817 205.1 818.4 205.5 820C205.9 821.6 206.5 823 207 823C207.4 823 208.1 824.1 208.4 825.5C208.8 826.9 209.5 828 210 828C210.6 828 211 829.1 211 830.5C211 832.1 211.6 833 212.5 833C213.3 833 214 833.9 214 835C214 836.1 214.4 837 215 837C215.5 837 216.2 838.1 216.6 839.5C216.9 840.9 217.8 842 218.6 842C219.4 842 220 842.7 220 843.5C220 844.3 220.5 845 221 845C221.6 845 222 845.7 222 846.5C222 847.3 222.7 848 223.5 848C224.3 848 225 848.7 225 849.5C225 850.3 225.7 851 226.5 851C227.3 851 228 851.7 228 852.5C228 853.3 228.7 854 229.5 854C230.3 854 231 854.4 231 855C231 855.5 231.7 856 232.5 856C233.3 856 234 856.7 234 857.5C234 858.3 234.7 859 235.5 859C236.3 859 237 859.7 237 860.5C237 861.4 237.9 862 239.5 862C241.1 862 242 862.6 242 863.5C242 864.3 242.7 865 243.5 865C244.3 865 245 865.4 245 865.9C245 866.4 246.1 867.1 247.5 867.4C248.9 867.8 250 868.5 250 869C250 869.6 251.4 870 253 870C255 870 256 870.5 256 871.5C256 872.6 257.1 873 260 873C262.9 873 264 873.4 264 874.5C264 875.6 265.3 876 269.4 876C272.9 876 275 876.5 275.3 877.2C275.9 879.1 712.1 879.1 712.8 877.2C713 876.5 714.9 876 717.5 876C720 876 722.5 875.4 723.4 874.5C724.2 873.7 726 873 727.4 873C728.8 873 730 872.6 730 872C730 871.5 731.2 870.7 732.7 870.4C734.2 870 736.1 869.1 736.8 868.3C737.5 867.6 738.8 867 739.6 867C740.4 867 741 866.6 741 866.1C741 865.6 742.2 864.9 743.7 864.5C745.2 864.2 747.4 862.8 748.7 861.4C749.9 860.1 751.4 859 752 859C752.5 859 753 858.6 753 858C753 857.5 754.1 856.8 755.5 856.4C756.9 856.1 758 855.3 758 854.8C758 854.3 759.4 852.5 761 850.8C762.7 849.2 764 847.2 764 846.4C764 845.6 764.7 845 765.5 845C766.3 845 767 844.3 767 843.5C767 842.7 767.5 842 768 842C768.6 842 769 841.3 769 840.5C769 839.7 769.7 839 770.5 839C771.4 839 772 838.1 772 836.5C772 834.9 772.6 834 773.5 834C774.4 834 775 833.1 775 831.6C775 830.3 775.7 829 776.5 828.6C777.3 828.3 778 827.4 778 826.5C778 825.7 778.4 825 778.9 825C779.4 825 780.1 823.9 780.4 822.5C780.8 821.1 781.5 820 782 820C782.6 820 783 819.1 783 818.1C783 817 783.7 815.5 784.5 814.6C785.3 813.8 786 812.7 786 812.1C786 811.5 786.4 811 787 811C787.5 811 788.2 809.9 788.6 808.5C788.9 807.1 789.6 806 790 806C790.5 806 791.1 804.6 791.5 803C791.9 801.3 792.5 800 793 800C793.4 800 794.1 798.9 794.4 797.5C794.8 796.1 795.5 795 796 795C796.6 795 797 794.1 797 793C797 791.9 797.7 791 798.5 791C799.4 791 800 790.1 800 788.5C800 786.9 800.6 786 801.5 786C802.4 786 803 785.1 803 783.6C803 782.3 803.7 781 804.5 780.6C805.3 780.3 806 778.9 806 777.5C806 776.1 806.5 775 807 775C807.6 775 808 774.3 808 773.5C808 772.7 808.7 772 809.5 772C810.4 772 811 771.1 811 769.5C811 768.1 811.7 766.7 812.5 766.4C813.3 766 814 764.7 814 763.4C814 761.9 814.6 761 815.5 761C816.4 761 817 760.1 817 758.9C817 757.7 817.8 756.1 818.8 755.4C821.5 753.4 819 751.6 814.6 752.4C812.6 752.8 811 753.5 811 753.9C811 754.4 806.9 755 801.8 755.2C796.4 755.6 792.4 756.2 792.2 756.9C792 757.5 790 758 787.8 758C784 758 781 759.7 781 762C781 762.6 780.3 763.3 779.5 763.6C778.7 764 778 765.3 778 766.6C778 768.1 777.4 769 776.5 769C775.6 769 775 769.9 775 771.5C775 772.9 774.3 774.3 773.5 774.6C772.7 775 772 776.3 772 777.6C772 779.1 771.4 780 770.5 780C769.7 780 769 780.7 769 781.5C769 782.3 768.6 783 768.1 783C767.6 783 766.9 784.4 766.5 786C766.1 787.7 765.5 789 765 789C764.6 789 763.9 790.1 763.6 791.5C763.2 792.9 762.5 794 762 794C761.4 794 761 794.9 761 796C761 797.1 760.3 798 759.5 798C758.6 798 758 798.9 758 800.5C758 801.9 757.6 803 757 803C756.5 803 755.8 804.1 755.4 805.5C755.1 806.9 754.4 808 754 808C753.5 808 752.9 809.4 752.5 811C752.1 812.7 751.4 814 750.9 814C750.4 814 750 814.7 750 815.5C750 816.3 749.3 817 748.5 817C747.6 817 747 817.9 747 819.5C747 820.9 746.3 822.3 745.5 822.6C744.7 823 744 823.7 744 824.2C744 825.5 738.4 831 737.1 831C736.5 831 736 831.7 736 832.5C736 833.3 735.3 834 734.5 834C733.7 834 733 834.7 733 835.5C733 836.3 732.3 837 731.5 837C730.7 837 730 837.4 730 837.9C730 838.4 728.9 839.1 727.5 839.4C726.1 839.8 725 840.5 725 841C725 841.6 724.1 842 723.1 842C722 842 720.5 842.7 719.6 843.5C718.8 844.3 717.2 845 716 845C714.8 845 713.2 845.7 712.4 846.5C711.4 847.5 708.9 848 704.9 848C701.6 848 699 848.4 699 849C699 849.7 629.7 850 493 850C374.4 850 287 849.6 287 849.1C287 848.6 284 848 280.3 847.8C276.4 847.6 273.5 846.9 273.2 846.2C273 845.5 271.5 845 269.9 845C268 845 267 844.5 267 843.5C267 842.6 266.1 842 264.5 842C263.1 842 262 841.6 262 841.1C262 840.6 260.7 839.9 259 839.5C257.4 839.1 256 838.2 256 837.4C256 836.6 255.3 836 254.5 836C253.7 836 253 835.5 253 835C253 834.4 252.3 834 251.5 834C250.7 834 250 833.3 250 832.5C250 831.7 249.3 831 248.5 831C247.7 831 247 830.5 247 829.9C247 829.2 245.9 827.7 244.5 826.4C243.1 825.1 242 823.6 242 823C242 822.5 241.6 822 241 822C240.5 822 239.8 820.9 239.4 819.5C239.1 818.1 238.4 817 238 817C237.5 817 236.9 815.6 236.5 814C236.1 812.4 235.5 811 235 811C234.6 811 233.9 809.9 233.6 808.5C233.2 807.1 232.5 806 232 806C231.4 806 231 805.3 231 804.5C231 803.7 230.3 803 229.5 803C228.5 803 228 802 228 800C228 798 227.5 797 226.5 797C225.6 797 225 796.1 225 794.6C225 793.3 224.3 792 223.5 791.6C222.7 791.3 222 790.2 222 789.1C222 788.1 221.3 787 220.5 786.6C219.7 786.3 219 785.4 219 784.5C219 783.7 218.6 783 218 783C217.5 783 217 781.9 217 780.5C217 778.9 216.4 778 215.5 778C214.5 778 214 777 214 775C214 773 213.5 772 212.5 772C211.7 772 211 771.3 211 770.5C211 769.7 210.6 769 210.1 769C209.6 769 208.9 767.6 208.5 766C208.1 764.3 207.4 763 206.9 763C206.4 763 205.8 761.9 205.4 760.5C205.1 759.1 204.4 758 204 758C203.6 758 202.9 756.9 202.6 755.5C202.2 754.1 201.5 753 201 753C200.4 753 200 752.1 200 751C200 749.9 199.3 749 198.5 749C197.7 749 197 748.3 197 747.5C197 746.2 194.5 746 180.5 746C164.7 746 164 746.1 164 748Z" fill="#111111"/>
</svg>
