<svg width="26" height="26" viewBox="0 0 26 26" fill="none" xmlns="http://www.w3.org/2000/svg">
<path d="M12.9922 0.5C10.5199 0.5 8.10318 1.23311 6.04756 2.60663C3.99195 3.98015 2.38979 5.93238 1.4437 8.21646C0.497604 10.5005 0.250062 13.0139 0.732377 15.4386C1.21469 17.8634 2.4052 20.0907 4.15336 21.8388C5.90152 23.587 8.1288 24.7775 10.5536 25.2598C12.9783 25.7421 15.4917 25.4946 17.7757 24.5485C20.0598 23.6024 22.012 22.0002 23.3856 19.9446C24.7591 17.889 25.4922 15.4723 25.4922 13C25.4923 11.3584 25.1691 9.73293 24.541 8.2163C23.9128 6.69967 22.9921 5.32162 21.8313 4.16086C20.6706 3.0001 19.2925 2.07936 17.7759 1.45123C16.2593 0.823093 14.6338 0.499864 12.9922 0.5ZM16.9666 19.4406C16.9198 19.5573 16.8486 19.6626 16.7578 19.7495C16.667 19.8364 16.5586 19.9028 16.44 19.9445C16.3214 19.9861 16.1953 20.0018 16.0701 19.9907C15.9449 19.9796 15.8235 19.9418 15.7141 19.88L12.3207 17.2432L10.1428 19.2525C10.0923 19.2898 10.0332 19.3139 9.97094 19.3224C9.90869 19.3309 9.84529 19.3236 9.78659 19.3012L10.2041 15.5656L10.2175 15.5762L10.226 15.5025C10.226 15.5025 16.3322 9.94306 16.581 9.7062C16.8328 9.46995 16.7497 9.4187 16.7497 9.4187C16.7641 9.13054 16.2978 9.4187 16.2978 9.4187L8.20719 14.6238L4.83783 13.4763C4.83783 13.4763 4.32033 13.2906 4.27158 12.8825C4.22033 12.4775 4.85469 12.2575 4.85469 12.2575L18.2509 6.93561C18.2509 6.93561 19.3522 6.44496 19.3522 7.2575L16.9666 19.4406Z" fill="white"/>
</svg>
