<svg width="30" height="30" viewBox="0 0 30 30" fill="none" xmlns="http://www.w3.org/2000/svg">
<path d="M18.8412 2.5H11.1719C4.16664 2.5 2.5 4.16664 2.5 11.1588V18.8281C2.5 25.8333 4.15368 27.5 11.1588 27.5H18.8281C25.8334 27.5 27.5 25.8463 27.5 18.8411V11.1719C27.5 4.16664 25.8463 2.5 18.8412 2.5ZM22.6823 20.3385H20.8594C20.1693 20.3385 19.9609 19.7786 18.724 18.5416C17.6432 17.5 17.1875 17.3698 16.9141 17.3698C16.5365 17.3698 16.4323 17.4739 16.4323 17.9948V19.6354C16.4323 20.0781 16.2891 20.3385 15.1302 20.3385C14.0057 20.263 12.9152 19.9213 11.9486 19.3418C10.982 18.7623 10.1668 17.9614 9.57031 17.0052C8.1542 15.2425 7.16888 13.1738 6.69274 10.9635C6.69274 10.6901 6.79687 10.4427 7.31774 10.4427H9.14062C9.60938 10.4427 9.77868 10.651 9.96094 11.1328C10.8463 13.7369 12.3568 16.0026 12.9688 16.0026C13.2031 16.0026 13.3073 15.8984 13.3073 15.3125V12.6302C13.2291 11.4062 12.5781 11.302 12.5781 10.8594C12.5867 10.7426 12.6404 10.6337 12.728 10.5559C12.8155 10.4781 12.9299 10.4375 13.0469 10.4427H15.9115C16.3021 10.4427 16.4323 10.638 16.4323 11.1067V14.7266C16.4323 15.1172 16.6016 15.2473 16.7188 15.2473C16.9531 15.2473 17.1354 15.1172 17.5651 14.6875C18.4884 13.5615 19.2429 12.307 19.8047 10.9635C19.862 10.8019 19.9707 10.6634 20.1142 10.5694C20.2576 10.4753 20.4279 10.4308 20.599 10.4427H22.4219C22.9688 10.4427 23.0859 10.7161 22.9688 11.1067C22.3055 12.5921 21.4848 14.0021 20.5209 15.3125C20.3256 15.6119 20.2474 15.7682 20.5209 16.1198C20.7031 16.3932 21.3412 16.927 21.7709 17.4348C22.3958 18.0583 22.9148 18.7796 23.3073 19.5703C23.4635 20.0781 23.2031 20.3385 22.6823 20.3385V20.3385Z" fill="#F3FFF4"/>
</svg>
