<svg width="30" height="30" viewBox="0 0 30 30" fill="none" xmlns="http://www.w3.org/2000/svg">
<path d="M21.8502 8.18773L18.3002 4.63773C18.184 4.52057 18.0458 4.42758 17.8935 4.36412C17.7411 4.30066 17.5777 4.26798 17.4127 4.26798C17.2477 4.26798 17.0843 4.30066 16.932 4.36412C16.7797 4.42758 16.6414 4.52057 16.5252 4.63773C16.2924 4.87194 16.1617 5.18875 16.1617 5.51898C16.1617 5.84921 16.2924 6.16603 16.5252 6.40023L19.1752 9.05023L9.05023 19.1752L6.40023 16.5252C6.16603 16.2924 5.84921 16.1617 5.51898 16.1617C5.18875 16.1617 4.87194 16.2924 4.63773 16.5252C4.52057 16.6414 4.42758 16.7797 4.36412 16.932C4.30066 17.0843 4.26798 17.2477 4.26798 17.4127C4.26798 17.5777 4.30066 17.7411 4.36412 17.8935C4.42758 18.0458 4.52057 18.184 4.63773 18.3002L8.15023 21.8127L11.6627 25.3252C11.7785 25.4433 11.9166 25.5373 12.0689 25.6017C12.2212 25.666 12.3848 25.6995 12.5502 25.7002C12.7985 25.7017 13.0416 25.6291 13.2485 25.4919C13.4554 25.3546 13.6167 25.1589 13.7119 24.9296C13.8072 24.7003 13.8319 24.4478 13.7831 24.2044C13.7342 23.9609 13.614 23.7376 13.4377 23.5627L10.8252 20.9502L20.9502 10.8252L23.6002 13.4752C23.7168 13.591 23.855 13.6826 24.0069 13.7449C24.1589 13.8072 24.3217 13.839 24.4859 13.8384C24.6501 13.8378 24.8127 13.8049 24.9642 13.7415C25.1157 13.6781 25.2533 13.5855 25.369 13.469C25.4847 13.3524 25.5763 13.2142 25.6387 13.0623C25.701 12.9103 25.7328 12.7476 25.7322 12.5833C25.7316 12.4191 25.6987 12.2565 25.6353 12.105C25.5719 11.9535 25.4793 11.816 25.3627 11.7002L21.8502 8.18773ZM4.63773 21.8252C4.40235 21.5899 4.08311 21.4576 3.75023 21.4576C3.41735 21.4576 3.09811 21.5899 2.86273 21.8252C2.62735 22.0606 2.49512 22.3799 2.49512 22.7127C2.49512 23.0456 2.62735 23.3649 2.86273 23.6002L6.40023 27.1377C6.51703 27.2536 6.65555 27.3452 6.80785 27.4074C6.96015 27.4697 7.12322 27.5012 7.28773 27.5002C7.45224 27.5012 7.61532 27.4697 7.76762 27.4074C7.91991 27.3452 8.05843 27.2536 8.17523 27.1377C8.29239 27.0215 8.38539 26.8833 8.44885 26.731C8.51231 26.5786 8.54498 26.4152 8.54498 26.2502C8.54498 26.0852 8.51231 25.9218 8.44885 25.7695C8.38539 25.6172 8.29239 25.4789 8.17523 25.3627L4.63773 21.8252ZM27.1377 6.40023L23.6002 2.86273C23.4837 2.74618 23.3453 2.65373 23.193 2.59066C23.0408 2.52758 22.8776 2.49512 22.7127 2.49512C22.5479 2.49512 22.3847 2.52758 22.2324 2.59066C22.0801 2.65373 21.9418 2.74618 21.8252 2.86273C21.7087 2.97928 21.6162 3.11764 21.5532 3.26992C21.4901 3.4222 21.4576 3.58541 21.4576 3.75023C21.4576 3.91506 21.4901 4.07827 21.5532 4.23054C21.6162 4.38282 21.7087 4.52118 21.8252 4.63773L25.3627 8.17523C25.4789 8.29239 25.6172 8.38539 25.7695 8.44885C25.9218 8.51231 26.0852 8.54498 26.2502 8.54498C26.4152 8.54498 26.5786 8.51231 26.731 8.44885C26.8833 8.38539 27.0215 8.29239 27.1377 8.17523C27.2549 8.05903 27.3479 7.92078 27.4113 7.76845C27.4748 7.61613 27.5075 7.45275 27.5075 7.28773C27.5075 7.12272 27.4748 6.95934 27.4113 6.80701C27.3479 6.65469 27.2549 6.51644 27.1377 6.40023Z" fill="#008CDB"/>
</svg>
