<svg width="30" height="30" viewBox="0 0 30 30" fill="none" xmlns="http://www.w3.org/2000/svg">
<path d="M15.3125 2.8125C8.42007 2.8125 2.8125 8.42007 2.8125 15.3125C2.8125 22.2049 8.42007 27.8125 15.3125 27.8125C22.2049 27.8125 27.8125 22.2049 27.8125 15.3125C27.8125 8.42007 22.2049 2.8125 15.3125 2.8125ZM23.7644 20.6058H20.9537L19.9387 18.863L20.8401 15.2308L22.6316 14.4712L25.1947 16.6773C25.0028 18.0736 24.5152 19.4129 23.7644 20.6058V20.6058ZM7.99339 14.4712L9.78365 15.2326L10.6851 18.8648L9.67007 20.6076H6.86058C6.11006 19.4153 5.62245 18.0766 5.43029 16.6809L7.99339 14.4712ZM22.9615 8.91406L21.8552 12.0589L19.985 12.851L16.5745 9.99159V7.88822L19.2103 6.13221C20.6624 6.75188 21.9477 7.70563 22.9615 8.91587V8.91406ZM11.4147 6.12981L14.0505 7.88582V9.98918L10.64 12.8504L8.76983 12.0583L7.66346 8.91346C8.67731 7.70323 9.96258 6.74947 11.4147 6.12981V6.12981ZM13.0036 25.018L11.7957 21.9736L12.7572 20.3203H17.8654L18.8305 21.9748L17.6286 25.0156C16.1074 25.3778 14.5224 25.3778 13.0012 25.0156L13.0036 25.018Z" fill="#00B9BA"/>
</svg>
