<svg width="30" height="30" viewBox="0 0 30 30" fill="none" xmlns="http://www.w3.org/2000/svg">
<path d="M7.76213 17.2375L6.76213 16.25H9.99963C10.3311 16.25 10.6491 16.1183 10.8835 15.8839C11.1179 15.6495 11.2496 15.3315 11.2496 15C11.2496 14.6685 11.1179 14.3505 10.8835 14.1161C10.6491 13.8817 10.3311 13.75 9.99963 13.75H6.76213L7.76213 12.7625C7.87929 12.6463 7.97228 12.508 8.03574 12.3557C8.0992 12.2034 8.13187 12.04 8.13187 11.875C8.13187 11.71 8.0992 11.5466 8.03574 11.3943C7.97228 11.242 7.87929 11.1037 7.76213 10.9875C7.64592 10.8703 7.50767 10.7773 7.35535 10.7139C7.20302 10.6504 7.03964 10.6178 6.87463 10.6178C6.70961 10.6178 6.54623 10.6504 6.39391 10.7139C6.24158 10.7773 6.10333 10.8703 5.98713 10.9875L2.86213 14.1125C2.74833 14.2314 2.65912 14.3716 2.59963 14.525C2.4746 14.8293 2.4746 15.1707 2.59963 15.475C2.65912 15.6284 2.74833 15.7686 2.86213 15.8875L5.98713 19.0125C6.22251 19.2479 6.54175 19.3801 6.87463 19.3801C7.2075 19.3801 7.52675 19.2479 7.76213 19.0125C7.99751 18.7771 8.12974 18.4579 8.12974 18.125C8.12974 17.7921 7.99751 17.4729 7.76213 17.2375ZM13.7496 10V20C13.7496 20.3315 13.8813 20.6495 14.1157 20.8839C14.3502 21.1183 14.6681 21.25 14.9996 21.25C15.3311 21.25 15.6491 21.1183 15.8835 20.8839C16.1179 20.6495 16.2496 20.3315 16.2496 20V10C16.2496 9.66848 16.1179 9.35054 15.8835 9.11612C15.6491 8.88169 15.3311 8.75 14.9996 8.75C14.6681 8.75 14.3502 8.88169 14.1157 9.11612C13.8813 9.35054 13.7496 9.66848 13.7496 10ZM22.2371 12.7625L23.2371 13.75H19.9996C19.6681 13.75 19.3502 13.8817 19.1157 14.1161C18.8813 14.3505 18.7496 14.6685 18.7496 15C18.7496 15.3315 18.8813 15.6495 19.1157 15.8839C19.3502 16.1183 19.6681 16.25 19.9996 16.25H23.2371L22.2371 17.2375C22.1206 17.354 22.0281 17.4924 21.9651 17.6447C21.902 17.797 21.8695 17.9602 21.8695 18.125C21.8695 18.2898 21.902 18.453 21.9651 18.6053C22.0281 18.7576 22.1206 18.896 22.2371 19.0125C22.3537 19.129 22.492 19.2215 22.6443 19.2846C22.7966 19.3477 22.9598 19.3801 23.1246 19.3801C23.2895 19.3801 23.4527 19.3477 23.6049 19.2846C23.7572 19.2215 23.8956 19.129 24.0121 19.0125L27.1371 15.8875C27.2509 15.7686 27.3401 15.6284 27.3996 15.475C27.4658 15.3254 27.4999 15.1636 27.4999 15C27.4999 14.8364 27.4658 14.6746 27.3996 14.525C27.3401 14.3716 27.2509 14.2314 27.1371 14.1125L24.0121 10.9875C23.7767 10.7521 23.4575 10.6199 23.1246 10.6199C22.7917 10.6199 22.4725 10.7521 22.2371 10.9875C22.0017 11.2229 21.8695 11.5421 21.8695 11.875C21.8695 12.2079 22.0017 12.5271 22.2371 12.7625Z" fill="#25BA00"/>
</svg>
