<svg width="30" height="30" viewBox="0 0 30 30" fill="none" xmlns="http://www.w3.org/2000/svg">
<path d="M12.7625 7.76261L13.75 6.76261V10.0001C13.75 10.3316 13.8817 10.6496 14.1161 10.884C14.3505 11.1184 14.6685 11.2501 15 11.2501C15.3315 11.2501 15.6495 11.1184 15.8839 10.884C16.1183 10.6496 16.25 10.3316 16.25 10.0001V6.76261L17.2375 7.76261C17.3537 7.87978 17.492 7.97277 17.6443 8.03623C17.7966 8.09969 17.96 8.13236 18.125 8.13236C18.29 8.13236 18.4534 8.09969 18.6057 8.03623C18.758 7.97277 18.8963 7.87978 19.0125 7.76261C19.1297 7.64641 19.2227 7.50816 19.2861 7.35584C19.3496 7.20351 19.3822 7.04013 19.3822 6.87511C19.3822 6.7101 19.3496 6.54672 19.2861 6.39439C19.2227 6.24207 19.1297 6.10382 19.0125 5.98761L15.8875 2.86261C15.7686 2.74881 15.6284 2.65961 15.475 2.60011C15.1707 2.47509 14.8293 2.47509 14.525 2.60011C14.3716 2.65961 14.2314 2.74881 14.1125 2.86261L10.9875 5.98761C10.7521 6.22299 10.6199 6.54224 10.6199 6.87511C10.6199 7.20799 10.7521 7.52724 10.9875 7.76261C11.2229 7.99799 11.5421 8.13023 11.875 8.13023C12.2079 8.13023 12.5271 7.99799 12.7625 7.76261ZM20 13.7501H10C9.66848 13.7501 9.35054 13.8818 9.11612 14.1162C8.8817 14.3507 8.75 14.6686 8.75 15.0001C8.75 15.3316 8.8817 15.6496 9.11612 15.884C9.35054 16.1184 9.66848 16.2501 10 16.2501H20C20.3315 16.2501 20.6495 16.1184 20.8839 15.884C21.1183 15.6496 21.25 15.3316 21.25 15.0001C21.25 14.6686 21.1183 14.3507 20.8839 14.1162C20.6495 13.8818 20.3315 13.7501 20 13.7501ZM17.2375 22.2376L16.25 23.2376V20.0001C16.25 19.6686 16.1183 19.3507 15.8839 19.1162C15.6495 18.8818 15.3315 18.7501 15 18.7501C14.6685 18.7501 14.3505 18.8818 14.1161 19.1162C13.8817 19.3507 13.75 19.6686 13.75 20.0001V23.2376L12.7625 22.2376C12.646 22.1211 12.5076 22.0286 12.3553 21.9655C12.203 21.9025 12.0398 21.87 11.875 21.87C11.7102 21.87 11.547 21.9025 11.3947 21.9655C11.2424 22.0286 11.104 22.1211 10.9875 22.2376C10.871 22.3542 10.7785 22.4925 10.7154 22.6448C10.6523 22.7971 10.6199 22.9603 10.6199 23.1251C10.6199 23.2899 10.6523 23.4531 10.7154 23.6054C10.7785 23.7577 10.871 23.8961 10.9875 24.0126L14.1125 27.1376C14.2314 27.2514 14.3716 27.3406 14.525 27.4001C14.6746 27.4662 14.8364 27.5004 15 27.5004C15.1636 27.5004 15.3254 27.4662 15.475 27.4001C15.6284 27.3406 15.7686 27.2514 15.8875 27.1376L19.0125 24.0126C19.2479 23.7772 19.3801 23.458 19.3801 23.1251C19.3801 22.7922 19.2479 22.473 19.0125 22.2376C18.7771 22.0022 18.4579 21.87 18.125 21.87C17.7921 21.87 17.4729 22.0022 17.2375 22.2376Z" fill="#25BA00"/>
</svg>
