<svg width="26" height="26" viewBox="0 0 26 26" fill="none" xmlns="http://www.w3.org/2000/svg">
<path d="M13 11.75C12.7528 11.75 12.5111 11.8233 12.3055 11.9607C12.1 12.098 11.9398 12.2932 11.8452 12.5216C11.7505 12.7501 11.7258 13.0014 11.774 13.2439C11.8223 13.4863 11.9413 13.7091 12.1161 13.8839C12.2909 14.0587 12.5137 14.1778 12.7561 14.226C12.9986 14.2742 13.25 14.2495 13.4784 14.1549C13.7068 14.0602 13.902 13.9 14.0393 13.6945C14.1767 13.4889 14.25 13.2472 14.25 13C14.25 12.6685 14.1183 12.3505 13.8839 12.1161C13.6495 11.8817 13.3315 11.75 13 11.75ZM13 0.5C10.5277 0.5 8.11099 1.23311 6.05538 2.60663C3.99976 3.98015 2.39761 5.93238 1.45151 8.21646C0.505416 10.5005 0.257874 13.0139 0.74019 15.4386C1.2225 17.8634 2.41301 20.0907 4.16117 21.8388C5.90933 23.587 8.13661 24.7775 10.5614 25.2598C12.9861 25.7421 15.4995 25.4946 17.7836 24.5485C20.0676 23.6024 22.0199 22.0002 23.3934 19.9446C24.7669 17.889 25.5 15.4723 25.5 13C25.5 11.3585 25.1767 9.73303 24.5485 8.21646C23.9203 6.69989 22.9996 5.3219 21.8388 4.16117C20.6781 3.00043 19.3001 2.07969 17.7836 1.45151C16.267 0.823322 14.6415 0.5 13 0.5ZM14.25 22.9125V19.25C14.25 18.9185 14.1183 18.6005 13.8839 18.3661C13.6495 18.1317 13.3315 18 13 18C12.6685 18 12.3505 18.1317 12.1161 18.3661C11.8817 18.6005 11.75 18.9185 11.75 19.25V22.9125C9.54998 22.6335 7.5051 21.6311 5.93699 20.063C4.36887 18.4949 3.3665 16.45 3.08751 14.25H6.75001C7.08153 14.25 7.39947 14.1183 7.63389 13.8839C7.86831 13.6495 8.00001 13.3315 8.00001 13C8.00001 12.6685 7.86831 12.3505 7.63389 12.1161C7.39947 11.8817 7.08153 11.75 6.75001 11.75H3.08751C3.3665 9.54997 4.36887 7.50509 5.93699 5.93698C7.5051 4.36887 9.54998 3.36649 11.75 3.0875V6.75C11.75 7.08152 11.8817 7.39946 12.1161 7.63388C12.3505 7.8683 12.6685 8 13 8C13.3315 8 13.6495 7.8683 13.8839 7.63388C14.1183 7.39946 14.25 7.08152 14.25 6.75V3.0875C16.45 3.36649 18.4949 4.36887 20.063 5.93698C21.6311 7.50509 22.6335 9.54997 22.9125 11.75H19.25C18.9185 11.75 18.6005 11.8817 18.3661 12.1161C18.1317 12.3505 18 12.6685 18 13C18 13.3315 18.1317 13.6495 18.3661 13.8839C18.6005 14.1183 18.9185 14.25 19.25 14.25H22.9125C22.6335 16.45 21.6311 18.4949 20.063 20.063C18.4949 21.6311 16.45 22.6335 14.25 22.9125Z" fill="#FF2F93"/>
</svg>
